<?xml version="1.0" encoding="UTF-8"?><svg id="Capa_2" xmlns="http://www.w3.org/2000/svg" viewBox="0 0 600.06 574.97"><defs><style>.cls-1{fill-rule:evenodd;}.cls-1,.cls-2{fill:#1a171b;}</style></defs><g id="Capa_1-2"><g id="Negro"><g id="NEGRO"><path class="cls-2" d="M434.01,328.24c-13.13,1.36-22.03.45-19.76-26.3,2.11-24.94,19.98-54.69,22.4-58.63-9.89-23.47-25.67-43.83-45.47-59.25l-18.44,33.57c23.11,20.08,37.73,49.7,37.73,82.76,0,53.89-38.85,98.66-90.01,107.81l-15.23,39.99c6.38-.19,12.66-.8,18.81-1.77l-2.89-28.78,4.76-.47,2.85,28.43c16.85-3.24,32.68-9.36,46.96-17.83-3.12,1.28-6.1,1.56-8.95.82-3.56-.93-6.44-3.39-8.67-7.4-2.31-4.15-2.93-8.02-1.86-11.62,1.06-3.6,3.46-6.44,7.19-8.52,3.62-2.02,7.19-2.55,10.73-1.58,3.54.97,6.44,3.48,8.7,7.55.14.25.34.62.6,1.13l-20.16,11.26c1.68,2.61,3.67,4.22,5.98,4.81,2.31.59,4.59.26,6.84-1,1.68-.94,2.89-2.14,3.63-3.61.74-1.46.97-3.27.68-5.43l5.03-2.11c.66,2.94.36,5.67-.88,8.19-.68,1.36-1.65,2.6-2.88,3.74,4.25-2.8,8.33-5.83,12.25-9.04l-18.6-20.27,3.16-2.91,2.89,3.15c-.54-2.21-.69-3.88-.44-4.97.25-1.1.79-2.03,1.61-2.78,1.19-1.1,2.74-1.82,4.66-2.19l1.79,4.38c-1.33.28-2.42.82-3.28,1.61-.77.71-1.24,1.57-1.43,2.6-.19,1.02-.04,2.07.46,3.13.76,1.61,1.82,3.16,3.18,4.65l9.66,10.52c4.92-4.31,9.55-8.96,13.86-13.88-1.63,1.02-3.36,1.65-5.2,1.89-3.64.48-7.24-.73-10.81-3.61-3.69-2.98-5.71-6.33-6.07-10.07-.36-3.73.8-7.27,3.48-10.6,2.59-3.23,5.71-5.06,9.36-5.49,3.64-.44,7.27.81,10.89,3.73.22.17.54.45.97.82l-14.47,18.01c2.53,1.79,4.98,2.53,7.35,2.21,2.36-.31,4.36-1.48,5.97-3.5,1.21-1.5,1.88-3.07,2.01-4.71.14-1.64-.33-3.4-1.4-5.29l3.87-3.84c1.71,2.48,2.46,5.12,2.24,7.92-.08,1.11-.37,2.21-.77,3.32,4.97-6.68,9.43-13.77,13.23-21.25l-20.75-45.07s8.62,10.97,23.76,8.17l3.73,21.52c3.71-9.98,6.39-20.46,7.87-31.33-1.48,3.37-4.95,6.62-12.77,7.43ZM323.28,414.79c-1.31.14-2.51-1.17-2.69-2.9-.17-1.73.75-3.25,2.07-3.38,1.31-.14,2.51,1.17,2.69,2.9.17,1.73-.75,3.25-2.06,3.38ZM350.26,438.18l-4.63,1.44-19.47-23.5,5.24-1.63,11.27,14.2c1.22,1.53,2.41,3.15,3.56,4.85,0-1.56.09-3.46.26-5.7l1.43-18.46,5.1-1.59-2.75,30.4Z"/><path class="cls-2" d="M395.99,378.01c-1.51,1.87-2.21,3.91-2.1,6.12.11,2.2,1.07,4.14,2.88,5.82l10.84-13.48c-1.99-1.31-3.79-1.91-5.4-1.8-2.48.15-4.55,1.26-6.22,3.34Z"/><path class="cls-2" d="M372.41,403.68c-2.35-.79-4.69-.54-7.01.75-2.1,1.18-3.52,2.8-4.23,4.89-.72,2.09-.55,4.24.49,6.48l15.09-8.43c-1.36-1.96-2.8-3.19-4.33-3.7Z"/><path class="cls-2" d="M300.1,437.8c.83,2.39,1.54,4.64,2.1,6.74.62-2.24,1.34-4.49,2.16-6.74l10.39-28.74c-4.46.55-8.99.87-13.61.87-3.68,0-7.32-.2-10.92-.56l9.89,28.42Z"/><path class="cls-2" d="M264.8,440.85c-1.23,1-2.63,1.59-4.21,1.75-.03,0-.07,0-.1,0,12.31,3.52,25.27,5.48,38.68,5.63l-14.92-39.61c-15.71-2.45-30.3-8.26-43.05-16.66l-22.11,31.41c2.36,1.58,4.77,3.09,7.22,4.54l14.67-24.28,4.09,2.48-14.6,24.16c2.65,1.44,5.35,2.78,8.09,4.07l12.25-25.83,4.32,2.05-12.22,25.75c3.39,1.46,6.84,2.82,10.36,4.03-1.24-.92-2.17-1.99-2.67-3.25-.8-2-.81-4.46-.03-7.38l3.74.79c-.55,1.82-.58,3.39-.09,4.69.49,1.31,1.52,2.31,3.11,2.98,1.6.69,2.96.78,4.09.29,1.13-.49,1.93-1.29,2.4-2.4.42-.99.41-1.92-.03-2.78-.31-.59-1.28-1.6-2.92-3.01-2.21-1.91-3.68-3.37-4.41-4.39-.74-1.02-1.14-2.16-1.19-3.43-.06-1.27.17-2.54.72-3.81.49-1.16,1.16-2.14,2-2.94.84-.81,1.76-1.38,2.76-1.72.76-.28,1.67-.38,2.76-.34,1.08.05,2.16.3,3.23.76,1.61.69,2.91,1.59,3.87,2.7.97,1.11,1.53,2.29,1.68,3.54.15,1.25-.02,2.76-.51,4.53l-3.65-.87c.41-1.4.41-2.64-.01-3.71-.42-1.06-1.31-1.89-2.66-2.47-1.6-.68-2.88-.84-3.86-.46-.97.38-1.64,1.01-2.03,1.91-.24.57-.32,1.14-.23,1.72.08.59.36,1.17.83,1.74.28.31,1.14,1.12,2.6,2.44,2.11,1.88,3.54,3.3,4.29,4.25.75.95,1.19,2.04,1.31,3.29.13,1.25-.13,2.62-.77,4.12-.63,1.47-1.56,2.7-2.78,3.71ZM248.1,401.08c-.92,1.52-2.58,2.2-3.71,1.51-1.13-.69-1.3-2.47-.38-3.99.92-1.52,2.57-2.2,3.7-1.51,1.13.68,1.3,2.47.38,3.99ZM257.58,405.35c-.74,1.57-2.31,2.39-3.51,1.83-1.19-.57-1.55-2.3-.8-3.88.75-1.57,2.32-2.39,3.51-1.82,1.19.57,1.55,2.3.8,3.88Z"/><path class="cls-2" d="M237.27,389.25c-3.78-2.73-7.39-5.69-10.79-8.87l-14.75,37.75c1.13.86,2.28,1.69,3.43,2.52l22.11-31.4Z"/><path class="cls-2" d="M185.82,392.8l35.87-17.2c-18.52-19.62-29.89-46.09-29.89-75.22,0-38.51,19.84-72.34,49.82-91.88-6.3,2.27-11.17-.65-15.26-7.41l-12.03-19.93c-21.67,15.79-38.89,37.36-49.39,62.45,2.08,3.36,20.1,33.11,22.24,58.31,2.26,26.76-6.64,27.66-19.76,26.3-7.21-.75-10.72-3.57-12.38-6.64,1.48,10.42,4.02,20.5,7.56,30.11l3.66-21.09c15.14,2.8,23.76-8.17,23.76-8.17l-20.62,44.8c4.6,9.1,10.12,17.66,16.43,25.56Z"/><path class="cls-2" d="M213.91,398.51l4.57-10.78c1.38-3.27,2.58-5.9,3.62-7.88-2.11,1.5-4.36,2.84-6.74,4.02l-11.11,5.45,9.66,9.19Z"/><path class="cls-2" d="M212.14,402.71l-11.92-11.34-11,5.53c5.49,6.39,11.51,12.3,18.01,17.67l4.92-11.86Z"/><path class="cls-2" d="M354.45,204.78l4-27.49-.13-.07-12.68,23.12c3.02,1.35,5.95,2.83,8.82,4.43Z"/><path class="cls-2" d="M359.45,207.75c2.62,1.66,5.16,3.43,7.62,5.3l12.69-24.04-20.31,18.74Z"/><path class="cls-2" d="M338.6,197.49l18.09-33.46c-9.45-3.88-19.38-6.82-29.69-8.67l9.46,41.34c.72.25,1.43.52,2.14.78Z"/><path class="cls-2" d="M366.39,168.43l-4.74,28.66.2.1,21.51-18.82c-5.41-3.67-11.08-7-16.97-9.94Z"/><path class="cls-2" d="M298.29,190.89l22.47-36.5c-6.51-.88-13.15-1.36-19.9-1.36-5.24,0-10.41.29-15.5.82l8.11,37.26c1.6-.11,3.21-.18,4.83-.22Z"/><path class="cls-2" d="M307.3,191.02c7.17.4,14.16,1.48,20.89,3.2l-2.78-10.64-12.73-1.64-5.39,9.08Z"/><polygon class="cls-2" points="321.76 166.03 316.64 174.74 324.32 176.21 321.99 166.08 321.76 166.03"/><path class="cls-2" d="M282.82,180.38l.15-.03-5.25-25.49c-4.63.73-9.19,1.67-13.66,2.83,3.1,3.7,16.87,20.12,18.76,22.69Z"/><path class="cls-2" d="M265.7,169.81l-.15.03c.14-.03,4.79,22.65,5.33,25.27,4.75-1.37,9.63-2.43,14.62-3.15l-19.79-22.15Z"/><path class="cls-2" d="M247.94,204.68c4.88-2.73,9.99-5.09,15.29-7.06l-8.19-37.3c-6.34,2.08-12.5,4.57-18.43,7.46l11.96,19.77c4.19,6.92,4.02,12.79-.64,17.14Z"/><path class="cls-2" d="M230.11,171.17c-3.16,1.74-6.26,3.59-9.28,5.56l12.91,21.4c2.82,4.65,6.02,4.55,8.01,3.34,2.16-1.31,4.09-4.29,1.19-9.09l-12.84-21.21Z"/><path class="cls-2" d="M440.81,254.56c-1.15,2.1-4.98,9.59-12.39,28.62-9.05,23.28,6.04,21.62,6.04,21.62,10.81.68,12.66,4.75,13.14,8.41.35-4.15.57-8.33.57-12.57,0-16.1-2.61-31.58-7.36-46.08Z"/><path class="cls-2" d="M166.97,304.8s14.88,1.74,6.03-21.62c-7.68-20.29-11.36-26.92-12.2-28.32-4.69,14.42-7.26,29.8-7.26,45.78,0,3.87.18,7.69.47,11.48.75-3.34,3.21-6.71,12.96-7.33Z"/><path class="cls-2" d="M214,123.92s-.06,0-.1,0c-.73-.04-18.04-.99-23.72-3.54-.68-.31-1.11-1.01-1.07-1.76.04-.75.54-1.4,1.26-1.63,5.63-1.8,12.29-4.36,13.44-5.42.26-.55.78-1.87.26-2.67-.3-.46-1.47-1.52-5.95-1.35-8.97.34-11.39,2.12-11.39,13.98,0,.72-.43,1.38-1.09,1.67-.66.29-1.43.15-1.96-.34-.27-.25-6.59-6.26-8.39-13.08-.72-2.71-.46-5.08.76-7.04,1.79-2.88,5.21-4.09,7.77-4.6,4.31-.86,20.26-6.04,22.37-7.85.25-.52.74-.89,1.32-.99.75-.13,1.5.22,1.88.89,4.49,7.86,12.05,21.38,12.24,23.69l.02.27c.15,1.72.43,4.91-1.61,7.27-1.31,1.52-3.31,2.36-5.93,2.51-.03,0-.07,0-.1,0ZM197.21,118.5c5.66,1,13.32,1.59,16.79,1.78,1.56-.1,2.67-.52,3.3-1.25,1.04-1.2.85-3.32.74-4.58l-.02-.29c-.31-1.44-5.51-11.14-10.71-20.31-1.62.91-4.46,2.12-9.47,3.85-5.4,1.86-11.36,3.59-13.32,3.99-1.52.3-4.24,1.1-5.4,2.96-.68,1.09-.79,2.46-.33,4.19.8,3.05,2.78,6.01,4.49,8.15.8-9.62,4.61-12.69,14.71-13.07,4.73-.18,7.72.81,9.13,3.01,1.09,1.7,1.05,4.03-.13,6.38-.65,1.32-3.94,3.05-9.78,5.18ZM203.75,111.7s0,0,0,0c0,0,0,0,0,0Z"/><path class="cls-2" d="M233.14,151.75c-6.15,0-8.39-7.19-8.49-7.49-.07-.22-.09-.45-.07-.68l1.12-13.05c-.1-2.01-.81-4.38-1.66-4.6-.61-.16-1.09-.63-1.27-1.24-.18-.61-.03-1.26.39-1.73.17-.19,4.26-5,.16-11.96-5.04-7.87-12.92-21.75-8.66-25.59.13-.11.27-.21.42-.28,1.38-.67,13.64-6.58,18.05-6.58h.84c3.96-.04,8.88-.09,13.79,7.19,1.08,1.61,2.03,3.12,2.86,4.45,2.82,4.52,4.28,6.69,6.42,6.79.51.02.98.26,1.31.65.33.39.47.9.4,1.41-.03.21-.74,5.14-4.78,7.04-.54.23-11.64,5.09-13.22,18.22l-.19,21.15c0,.09,0,.19-.02.28-.35,2.08-2.35,6.03-7.42,6.03ZM228.23,143.5c.4,1.06,1.96,4.62,4.92,4.62s3.66-2.19,3.82-2.89l.19-21.07c0-.07,0-.13.01-.2,1.79-15.36,14.81-20.97,15.36-21.21,1.14-.54,1.81-1.66,2.2-2.61-2.82-1.11-4.71-4.14-7.15-8.03-.82-1.31-1.74-2.78-2.79-4.34-3.82-5.67-7.03-5.63-10.76-5.6h-.88c-2.64,0-11.11,3.63-16.1,6.04-.86,1.96,3.51,11.74,9.37,20.88,3.61,6.12,2.38,11.53.65,14.59,1.99,2.11,2.23,5.91,2.27,6.82,0,.07,0,.14,0,.22l-1.09,12.78Z"/><path class="cls-2" d="M245.51,139.24c-1.24,0-1.99-.1-2.11-.11-.79-.11-1.42-.73-1.54-1.52-4.14-27.11,17.3-32.45,17.52-32.5.6-.14,1.23.03,1.67.47,7.66,7.48,6.23,23.54,6.17,24.22-.04.47-.27.91-.63,1.21-8.61,7.29-17.21,8.23-21.08,8.23ZM245.24,135.6c2.99,0,10.69-.62,18.43-6.88.17-2.95.43-14.05-4.44-19.79-3.71,1.26-16.35,7.05-13.99,26.68Z"/><path class="cls-2" d="M246.02,152.59c-1.86,0-3.08-.09-3.26-.1-.49-.04-.94-.27-1.26-.65s-.46-.87-.41-1.36l.94-8.46c.1-.86.78-1.53,1.64-1.61,16.44-1.42,23.02-7.69,23.09-7.76.65-.64,1.69-.7,2.4-.13,3.52,2.82,1.93,10.78,1.57,12.35-.09.38-.29.73-.59.98-6.97,5.94-18.51,6.73-24.14,6.73ZM244.92,148.95c4.46.08,15.84-.28,22.43-5.47.48-2.45.61-5.19.22-6.83-2.97,2.11-9.88,5.94-22.09,7.23l-.56,5.06Z"/><path class="cls-2" d="M230.03,172.92c-23.19-1.63-29.89-4.87-30.16-5-.58-.29-.96-.87-1-1.52s.27-1.27.82-1.62l22.14-14.48c.52-.34,1.16-.39,1.73-.14,26.22,11.69,46.14-.51,46.34-.63.35-.22.77-.32,1.19-.26,1.48.19,3.84,2.31,7.01,6.31l-2.84,2.26c-1.56-1.97-3.39-3.93-4.35-4.7-4.35,2.39-23.32,11.29-47.92.74l-18.17,11.88c3.9,1.04,11.65,2.58,25.46,3.55l-.25,3.62Z"/><path class="cls-2" d="M232.21,102.2c-3.84,0-6.97-3.13-6.97-6.98s3.13-6.98,6.97-6.98,6.97,3.13,6.97,6.98-3.13,6.98-6.97,6.98ZM232.21,91.86c-1.85,0-3.35,1.51-3.35,3.36s1.5,3.36,3.35,3.36,3.35-1.51,3.35-3.36-1.5-3.36-3.35-3.36Z"/><path class="cls-2" d="M411.73,150.53c-.51-.67-1.4-.9-2.17-.56-5.95,2.62-10.97,3.6-14.98,2.95v-.08s-.66-.1-1.7-.31c-.55-.17-1.07-.36-1.57-.6-5.44-2.56-7.21-8.78-8.16-12.12-.15-.54-.29-1-.4-1.36-1.43-4.29-3.28-18.87-3.3-19.02-.09-.71-.58-1.29-1.26-1.5-1.55-.48-3.44-1.33-3.62-2.64-.37-2.66,4.83-7.34,8.68-9.85,5.13-2.65,18-14.97,18.55-15.49.47-.45.66-1.13.5-1.76-.16-.64-.65-1.13-1.29-1.3-.07-.02-7.45-2.05-8.85-7.36-1.99-7.54-9.53-8.27-9.86-8.3-.63-.06-1.23.22-1.6.72l-5.62,7.51-8.68-7.08c-.42-.35-.98-.48-1.52-.37-.54.12-.99.47-1.24.96-1.17,2.36-1.58,5.21-1.65,7.8l-5.36-8c-.3-.45-.79-.74-1.33-.8-.54-.05-1.08.14-1.46.53-4.88,4.95-7.09,10.02-6.55,15.05.48,4.48,3.03,7.87,5.09,9.93-12.29,3-20.93-5.25-21.32-5.63-.44-.43-1.06-.61-1.66-.48-.6.13-1.09.56-1.3,1.14-1.59,4.28-1.34,8.07.73,11.26,2.09,3.22,5.78,5.28,9.45,6.59-5.96-.22-13.1-1.16-18.1-2.08-.59-.11-1.17.08-1.59.49-.42.41-.61,1-.52,1.59.73,4.55,2.92,8.14,6.5,10.67,5.65,4,13.53,4.42,18.69,4.17-9.49,6.82-28.71,7.87-28.93,7.88-.61.03-1.17.37-1.48.9-.31.53-.32,1.19-.04,1.73,3,5.87,13.28,8.61,19.89,9.79-10.29,4.24-23.81,3.38-23.97,3.37-.85-.06-1.58.45-1.84,1.24-.26.78.04,1.65.73,2.1,2.77,1.8,5.56,3.41,8.27,4.78l.74-1.46c30.72,2.41,45.68-12.04,49.74-16.82,3.48,12.12,20.3,16.33,25.93,17.42,3.21.87,6.92.82,11.11-.19-3.64,3.01-8.29,5.84-12.44,5.51-3.1-.24-5.65-2.15-7.8-5.84-.3-.5-.82-.84-1.4-.89-.59-.05-1.15.18-1.54.62-1.53,1.76-6.66,6.56-10.03,5.48-2.46-.79-4.17-4.91-4.82-11.61-.08-.77-.63-1.41-1.38-1.59-.75-.18-1.53.13-1.95.79-.09.14-8.92,13.58-28.25,10.8l-.52,3.59c15.38,2.23,24.78-4.69,29.06-9.09,1.14,6.03,3.37,9.5,6.75,10.58,4.66,1.49,9.67-2.42,12.22-4.86,2.55,3.46,5.69,5.36,9.35,5.65.32.02.63.04.95.04,9.93,0,19.66-11.8,20.08-12.32.53-.65.55-1.58.04-2.25ZM375.99,121.01c.26,2,.85,6.3,1.55,10.41-2.14-1.1-4.94-3.47-5.81-8.5-.14-.8-.79-1.41-1.6-1.49-.81-.08-1.57.38-1.87,1.13-.01.03-1.2,2.95-3.57,3.93-1.18.49-2.48.41-3.97-.23h0c-2.63-1.15-3.72-4.4-4.06-5.74,2.7-4.2,10-6.35,14.51-7.17-.23.81-.31,1.63-.2,2.43.31,2.3,2,4.05,5.02,5.22ZM375.46,86.15c2.48,3.28,6.8,6.01,10.4,7.88-3.38.43-7.56.98-11.11,1.49-1.73-1.62-.68-5.92.71-9.37ZM372.23,109.51c-2.65.37-10.38,1.76-15.48,5.72.04-.19.08-.37.12-.56l.21-1.01c.82-3.78,8.44-13.03,14.65-14.01.25-.04.51-.08.78-.12.39,4.05.36,8.33-.28,9.99ZM381.52,102.25c-.06.03-.12.06-.17.1-.79.51-2.89,1.93-5,3.83.13-2.53-.06-5.24-.25-7.18,4-.57,8.64-1.17,12-1.59-2.66,2.23-5.1,4.11-6.57,4.84ZM382.92,75.01c1.59.4,4.73,1.65,5.73,5.44,1.26,4.78,5.58,7.51,8.53,8.86-1.24,1.16-2.73,2.53-4.3,3.93-3.75-1.46-13.5-6.13-15.47-10.86l5.52-7.37ZM326.64,118.06c-2.09-1.48-3.53-3.37-4.37-5.73,6.67,1.08,22.64,3.22,27.96.06.68-.41,1.02-1.21.83-1.99s-.86-1.34-1.65-1.38c-.13,0-13.44-.88-17.56-7.22-1.03-1.59-1.38-3.39-1.06-5.47,4.19,3.05,13.77,8.26,25.91,3.6.63-.24,1.08-.82,1.15-1.5s-.24-1.34-.8-1.71c-.06-.04-5.57-3.76-6.17-9.57-.35-3.37,1-6.87,4.02-10.44l7.91,11.81c.48.72,1.4,1,2.2.66.8-.33,1.25-1.18,1.08-2.03-.01-.07-1.12-5.79,0-10.35l7.02,5.73c-1.41,2.88-4.08,9.32-2.28,13.59-7.82,1.49-16.24,11.92-17.29,16.77l-.22,1.04c-.77,3.67-1.09,5.19-4.55,6.26l.35,1.15c-.37-.23-.82-.34-1.27-.26-.13.02-13.54,2.42-21.21-3.01ZM318.05,136.41c7.65-.79,25.34-3.56,31.61-12.51.07-.1.11-.21.16-.31l.02.07c1.46-.45,2.59-1.02,3.46-1.69.51,1.74,1.69,4.67,4.16,6.56-2.53,3.69-9.75,12.93-19.09,14.13-4.62-.46-15.39-2.33-20.32-6.24ZM369.48,136.12c-.12-.81-.78-1.44-1.59-1.53l-1.69-.19c-.66-.07-1.31.22-1.69.77-.13.19-12.77,17.93-43.87,16.93,5.98-.69,13.02-2.3,18.42-5.89,11.16-1.57,19.21-12.35,21.69-16.1,1.87.51,3.66.43,5.34-.27,1.33-.55,2.39-1.43,3.22-2.33,2.14,4.96,6.15,7.32,8.99,8.14.33,1.6.66,3,.98,3.96.11.32.22.73.36,1.21.62,2.18,1.65,5.77,3.88,8.99-6.24-2.46-13-6.7-14.05-13.68Z"/><path class="cls-2" d="M412.31,122.37c-12.94,0-26.45-2.85-27.17-3.01-2.79-.7-3.78-2.2-4.12-3.33-.81-2.67,1.16-5.49,2.07-6.6.46-1.28,2.52-3.83,11.59-9.16,4.65-3.24,9.92-8.87,9.97-8.93.23-.25.52-.42.85-.51l2.06-.56c.54-.15,1.12-.03,1.57.31.36.28.6.68.68,1.12,1.48,1.89,12.86,6.17,22.75,9.12.18.05.36.14.51.25,3.29,2.27,5.05,5.05,5.25,8.24.38,6.04-5.21,11.13-5.45,11.34-.63.57-1.58.62-2.27.12-.69-.5-.94-1.41-.6-2.19.84-1.93.36-3-.08-3.63-3.08-4.49-17.3-5.4-23.71-5.12-1.61.07-2.5.93-2.52,1.22,0,.18.83,1.32,4.79,1.94,9.94,1.56,14.56,5.31,14.76,5.47.55.45.78,1.18.59,1.87-.18.69-.75,1.2-1.45,1.32-3.15.53-6.6.73-10.09.73ZM386.55,110.56c-.06.34-.21.66-.44.92-.82.92-1.87,2.7-1.63,3.5.14.47,1.08.76,1.47.85.13.03,16.46,3.47,30,2.83-2.02-.78-4.69-1.57-8.02-2.09-7.04-1.11-7.93-4.07-7.84-5.73.14-2.47,2.77-4.51,5.98-4.64.88-.04,21.69-.83,26.84,6.69.22.32.43.69.62,1.1.73-1.34,1.28-2.9,1.18-4.48-.13-1.98-1.26-3.72-3.47-5.31-16.45-4.91-22.09-8.13-24.02-10.08l-.3.08c-1.31,1.37-5.94,6.1-10.25,9.09-.04.03-.08.05-.12.07-4.3,2.52-9.26,5.96-10.02,7.19ZM386.58,110.26h0s0,0,0,0ZM409.85,92.02h0s0,0,0,0Z"/><path class="cls-2" d="M174.08,162.45c-7.02-2.9-25.55-12.45-27.02-21.65-.46-2.88.81-5.56,3.87-8.18,5.65-4.84,3.54-8.76,2.37-10.22-8.64-10.8-59.92-10.32-94.39,15.59l-2.56,1.92,101.61,41.39.85-1.04c2.5-3.08,9.99-11.21,14.49-11.91l1.32-.2.77-5.16-1.31-.54ZM130.75,153.11l14.78,15.89-10.82-7.23-19.71-13.96c-.41-.38-3.09-3.03-3.29-7.08-.16-3.31,1.4-6.73,4.62-10.18,1.71-1.01,6.17-2.97,9.2-1.62,3.99,1.78,4.33,2.57,4.34,2.78,0,0-.04.92-3.19,2.72-1.89,1.08-3.03,2.71-3.28,4.7-.75,5.87,6.57,13.23,7.34,13.98ZM157.35,176.39l-24.01-25.82c-1.79-1.75-6.79-7.52-6.34-10.99.07-.54.3-1.33,1.48-2.01,2.22-1.27,5.15-3.28,5.01-6.05-.14-2.85-3.28-4.48-6.49-5.91-5.57-2.48-12.49,1.79-12.78,1.97l-.19.12-.16.16c-4.05,4.25-5.99,8.63-5.78,13.03.28,5.9,4.41,9.55,4.59,9.7l19.98,14.16,8.89,5.94-77.83-31.7c34.89-24.41,80.69-21.93,86.78-14.33.46.58,1.69,2.12-1.9,5.2-4.04,3.46-5.76,7.34-5.09,11.51,1.82,11.46,21.98,21.22,27.73,23.79-5.15,1.78-11.17,8.14-13.87,11.23Z"/><path class="cls-2" d="M82.71,142.58c-2.89,0-5.24-2.36-5.24-5.25s2.35-5.25,5.24-5.25,5.24,2.36,5.24,5.25-2.35,5.25-5.24,5.25ZM82.71,135.7c-.89,0-1.62.73-1.62,1.62s.73,1.63,1.62,1.63,1.62-.73,1.62-1.63-.73-1.62-1.62-1.62Z"/><path class="cls-2" d="M92.74,149.98c-2.74,0-4.98-2.24-4.98-4.99s2.23-4.99,4.98-4.99,4.98,2.24,4.98,4.99-2.23,4.99-4.98,4.99ZM92.74,143.63c-.75,0-1.36.61-1.36,1.36s.61,1.36,1.36,1.36,1.36-.61,1.36-1.36-.61-1.36-1.36-1.36Z"/><path class="cls-2" d="M55.39,172.49l-3.54-.74c3.42-16.43,1.98-21.56,1.2-22.06,0,0-.01,0-.02,0-.94,0-5.27,3.44-12.46,19.18l-3.29-1.51c7.04-15.39,12.74-22.48,16.94-21.1,4.12,1.37,4.51,10.2,1.18,26.24Z"/><path class="cls-2" d="M23.42,243.11c-.44,0-.83-.08-1.18-.2-2.12-.71-4.71-3.3-2.71-17.62,1.32-9.44,4.34-21.55,8.49-34.1,1.96-5.92,4.05-11.6,6.23-16.88l3.35,1.39c-2.14,5.2-4.21,10.79-6.14,16.63-9.37,28.32-10.23,45.74-8.06,47.14.01,0,.03,0,.04,0,2.59,0,12.23-14.49,21.55-42.65,2.02-6.1,3.76-12.09,5.19-17.8l3.51.88c-1.45,5.81-3.22,11.88-5.26,18.07-4.15,12.55-8.95,24.07-13.52,32.43-5.78,10.59-9.26,12.71-11.49,12.71Z"/><path class="cls-2" d="M75.08,177.73l-3.59-.49c1.92-14.01.56-18.88-.16-19.66-.99.34-4.41,3.96-9.19,17.02l-3.4-1.25c5.04-13.79,9.57-20.29,13.47-19.33,3.93.97,4.89,8.95,2.87,23.7Z"/><path class="cls-2" d="M52.5,236.94c-.25,0-.5-.03-.76-.09-1.95-.48-4.46-2.54-3.76-14.78.45-7.95,2.16-18.21,4.8-28.91,1.07-4.32,2.25-8.54,3.51-12.54l3.45,1.09c-1.24,3.93-2.4,8.08-3.45,12.32-5.77,23.35-5.47,37.58-3.67,39.27,2.38-.66,9.27-13.1,15.05-36.44,1.02-4.13,1.9-8.2,2.62-12.11l3.56.66c-.73,3.98-1.63,8.13-2.66,12.32-.41,1.65-9.8,39.22-18.68,39.22Z"/><path class="cls-2" d="M92.57,182.39l-3.61-.26c.91-12.5-.32-17.42-1.03-18.59-.99.85-3.59,4.83-6.61,16.05l-3.5-.95c5.32-19.74,9.39-19.06,10.72-18.84,1.38.23,5.59.93,4.02,22.59Z"/><path class="cls-2" d="M76.59,235.61c-.18,0-.35-.01-.53-.04-2.88-.48-4.22-4.51-4.34-13.09-.1-7.12.73-16.41,2.34-26.15.56-3.42,1.21-6.8,1.92-10.06l3.54.77c-.7,3.2-1.33,6.53-1.89,9.88-3.47,21.03-2.37,32.88-.96,34.94,2-1.5,6.84-12.37,10.31-33.39.48-2.88.89-5.78,1.23-8.62l3.6.43c-.35,2.9-.77,5.85-1.26,8.78-1.61,9.74-3.8,18.8-6.18,25.52-2.69,7.59-5.11,11.04-7.78,11.04Z"/><path class="cls-2" d="M109.42,186.78l-3.61-.27c.67-9.11-.12-13.22-.67-14.56-.92,1.05-2.9,4.51-5.12,12.81l-3.5-.94c4.42-16.58,8.06-15.97,9.26-15.78,1.23.2,4.96.82,3.64,18.72Z"/><path class="cls-2" d="M96.39,228.08c-.17,0-.34-.01-.5-.04-2.54-.42-3.74-3.7-3.89-10.63-.12-5.6.5-12.89,1.76-20.53.29-1.79.62-3.59.98-5.37l3.55.72c-.35,1.74-.67,3.5-.96,5.25-2.52,15.28-1.82,24.46-.8,26.7,1.68-1.79,5.29-10.26,7.81-25.54.23-1.41.44-2.8.63-4.16l3.59.49c-.19,1.39-.4,2.81-.64,4.26-1.26,7.64-3.01,14.75-4.92,20.01-2.21,6.08-4.27,8.85-6.59,8.85Z"/><path class="cls-2" d="M122.97,190.64l-3.62-.18c.39-8.05-.25-12.1-.77-13.72-.84,1.37-2.33,4.83-3.82,11.96l-3.54-.75c3.36-16.01,6.65-15.6,7.88-15.44,1.17.14,4.72.58,3.87,18.13Z"/><path class="cls-2" d="M112.77,226.93c-.12,0-.23,0-.33-.02-2.34-.29-3.54-3.23-3.89-9.53-.28-5.01.03-11.56.88-18.45.14-1.15.29-2.28.45-3.38l3.58.53c-.16,1.08-.3,2.18-.44,3.29-1.56,12.73-.9,20.76-.06,23.34,1.44-2.3,4.01-9.94,5.57-22.67l.2-1.71,3.6.41-.03.26c-.06.49-.11.98-.17,1.47-1.24,10.15-3.95,22.99-7.48,25.75-.7.55-1.36.69-1.87.69Z"/><path class="cls-2" d="M133.15,194.35c-.1-7.2-1.06-11.07-1.74-12.42-.7,1.06-1.99,4.02-3.01,10.4l-3.57-.58c2.27-14.11,5.7-13.89,6.83-13.83,3.25.2,4.97,5.71,5.11,16.37l-3.62.05Z"/><path class="cls-2" d="M128.93,224.88c-.06,0-.12,0-.18,0-2.29-.14-3.73-2.71-4.52-8.09-.63-4.27-.77-9.87-.41-15.78.02-.35.05-.71.07-1.07l3.62.18v.07c-.03.34-.05.69-.07,1.03-.68,11.01.56,17.77,1.56,19.68,1.18-1.73,3.19-8.01,3.93-18.53l.05-.8,3.61.24-.05.81c-.37,5.27-2,22.27-7.61,22.27Z"/><path class="cls-2" d="M147,198.12c-.07-6.42-1.04-10.01-1.7-11.26-.69,1.06-1.81,3.97-2.51,9.35l-3.59-.47c.76-5.89,2.44-12.86,6.14-12.86.04,0,.09,0,.13,0,4.34.2,5.08,9.61,5.14,15.21l-3.62.04Z"/><path class="cls-2" d="M143.93,220.53s-.09,0-.13,0c-4.76-.22-5.18-11.57-5.15-16.44l3.62.03c-.05,6.82.95,11.03,1.7,12.44.74-1.15,1.98-4.44,2.64-10.44l3.6.4c-.58,5.26-2.16,14.03-6.28,14.03Z"/><path class="cls-2" d="M69.82,446.78c-.07-.17-2.41-6.05-5.62-13.92-6.82-11.88-18.22-27.39-23.71-34.46l-.14-.22C4.42,334.86,13.92,251.91,14.02,251.08l3.59.44c-.1.82-9.43,82.51,25.81,144.75,1.44,1.85,6.91,8.97,12.78,17.43-4.19-9.79-8.19-18.64-10.06-21.37-.9-1.23-22.46-32.34-14.35-143.29l3.61.26c-7.98,109.22,13.48,140.63,13.7,140.94,3.33,4.83,12.38,26.39,18.39,41.11,3.43,6.08,5.81,11.48,5.81,14.76l-3.49.67Z"/><path class="cls-2" d="M92.58,412.69c-1.41-3.32-3.17-7.43-5.08-11.82-5.52-9.02-14.58-20.91-21.47-29.22l-.15-.22c-32.63-53.9-24-124.51-23.91-125.22l3.59.46c-.09.69-8.53,69.98,23.35,122.76,1.24,1.49,5.64,6.87,10.55,13.42-3.59-7.81-6.78-14.3-8.3-16.38-.81-1.05-20.43-27.57-13.07-121.99l3.61.28c-7.22,92.61,12.16,119.26,12.36,119.52,3.04,4.14,11.28,22.54,16.74,35.06,3.11,5.18,5.27,9.8,5.27,12.62l-3.48.71Z"/><path class="cls-2" d="M107.52,374.6c-1-2.32-2.45-5.65-4.11-9.38-4.52-7.24-11.98-16.87-17.38-23.28l-.16-.22c-26.56-43.13-19.53-99.62-19.46-100.19l3.59.47c-.07.55-6.9,55.7,18.88,97.7.85,1.02,3.45,4.14,6.58,8.15-2.3-4.82-4.28-8.69-5.3-10.05-.66-.83-16.66-22.12-10.69-97.62l3.61.29c-5.84,73.68,9.79,94.93,9.95,95.13,2.49,3.33,9.23,18.12,13.66,28.13,2.53,4.16,4.28,7.87,4.28,10.15l-3.47.72Z"/><path class="cls-2" d="M125.66,347.69c-.92-1.92-2.26-4.67-3.78-7.75-4.05-5.8-10.74-13.64-16.03-19.28l-.17-.22c-24.63-35.94-18.12-83.01-18.05-83.48l3.58.52c-.07.46-6.35,46.06,17.37,80.79.96,1.03,2.83,3.05,5.07,5.6-1.74-3.21-3.19-5.7-3.99-6.66-.61-.69-15.51-18.48-9.96-81.34l3.61.32c-5.41,61.33,8.96,78.5,9.11,78.67,2.35,2.83,8.54,15.03,12.67,23.39,2.37,3.52,4.01,6.68,4.01,8.66l-3.44.79Z"/><path class="cls-2" d="M140.55,324.27c-.95-1.86-2.04-3.97-3.17-6.14-3.15-4.32-8.34-10.26-13.27-15.29l-.18-.21c-20.65-28.74-16.88-66.22-16.71-67.8l3.6.39c-.04.37-3.76,37.6,15.97,65.18.52.53,1.18,1.21,1.93,2-.72-1.18-1.3-2.05-1.69-2.49-.5-.54-12.93-14.74-10.25-66.29l3.62.19c-2.58,49.63,9.22,63.56,9.34,63.69,1.96,2.25,7.19,11.98,10.71,18.7,2.03,2.88,3.45,5.48,3.51,7.17l-3.42.89Z"/><path class="cls-2" d="M150.49,300.93c-.8-1.39-1.73-3-2.72-4.67-2.67-3.21-7.09-7.67-11.26-11.43l-.19-.2c-17.81-21.91-14.41-50.61-14.26-51.82l3.59.46c-.03.26-2.93,24.97,10.54,45.1-3.16-6.11-7.59-19.71-5.9-46.46l3.61.23c-2.37,37.34,7.57,47.79,7.67,47.89,1.71,1.73,6.21,9.15,9.22,14.26,1.78,2.26,3.02,4.31,3.07,5.69l-3.38.97Z"/><path class="cls-2" d="M165.89,289.36l-3.76-5.85c-.7-1.09-1.52-2.36-2.39-3.67-2.28-2.44-6.06-5.86-9.57-8.7l-.2-.19c-15.47-17.12-13.19-40.2-13.09-41.17l3.6.39c-.02.19-1.66,17.03,7.35,31.86-2.41-5.97-4.77-16.26-4.07-33.14l3.62.15c-1.22,29.36,7.15,37.46,7.24,37.54,1.52,1.39,5.43,7.14,8.1,11.2,1.59,1.82,2.67,3.47,2.74,4.65l.43,6.95Z"/><path class="cls-2" d="M167.86,405.11l-11.92-9.04,1.67-1.47c.86-.75,1.55-3.85,1.72-5.79.12-1.78-.55-2.54-1.07-2.96-3.12-2.51-11.94-.66-14.78.18l-.95.28-10.63-9.17,1.41-1.38c2.67-2.62,6.38-3.65,9.52-4.01-5.55-2.18-11.07-.25-11.14-.23l-.99.36-9.48-8.19,2.2-1.28c12.47-7.25,28.96-.12,34.96,2.96l6.4-36.89,1.8.33c13.91,2.57,21.93-7.4,22.01-7.5l3.07,1.88-23.12,50.24c9.46,16.07.77,29.49.39,30.06l-1.07,1.6ZM161.29,395.58l5.55,4.21c1.87-3.87,5.26-13.83-1.89-25.27l-.52-.83,20.56-44.68c-4.01,2.44-9.83,4.58-17.26,3.66l-6.67,38.43-2.26-1.36c-.19-.11-18-10.63-31.21-5.33l3.92,3.39c3-.79,11.78-2.32,18.61,4.49l3.87,3.87-5.41-.78c-.07-.01-6.7-.91-11.15,1.76l5.98,5.15c3.19-.84,12.61-2.88,17.11.73,1.22.98,2.63,2.83,2.41,6.07-.07.82-.42,4.11-1.64,6.49Z"/><path class="cls-2" d="M129.81,402.78l-2.23-3.12c-2.78-3.89-6.13-13.22,1.06-20.71l1.13-1.18,11.84,9.3-2.41,1.32c-.06.03-6.53,3.69-8.41,10.69l-.99,3.7ZM130.2,382.71c-3.15,4.18-2.46,8.61-1.36,11.53,1.87-3.59,4.56-6.1,6.44-7.54l-5.08-3.99Z"/><path class="cls-2" d="M114.42,390.76l-1.71-4.69c-.18-.5-4.31-12.21,4.68-20.09l1.19-1.04,10.83,9.49-2.91,1.04c-.07.03-7.58,2.83-10.39,10.6l-1.7,4.7ZM118.65,369.81c-2.95,3.25-3.53,7.14-3.41,10.14,2.35-3.35,5.3-5.46,7.4-6.65l-3.99-3.49Z"/><path class="cls-2" d="M152.05,413.8c-1.98,0-4.14-.32-6.45-1.11l-3.48-1.19,3.06-2.04c2.22-1.48,8.23-6.12,9.37-9.79l.81-2.62,11.4,9.68-1.27,1.39c-.26.28-5.32,5.68-13.44,5.68ZM150.42,410.07c5.16.54,9.01-1.66,10.96-3.16l-4.48-3.8c-1.62,2.69-4.32,5.2-6.49,6.96Z"/><path class="cls-1" d="M190.39,168.6h-5.93s-19.99,1.97-28.7,35.85c-8.22,31.95,5.77,52.18,5.77,52.18l4.28-12.38s-10.32-12.55-3.92-41.9c5.93-27.23,28.51-33.74,28.51-33.74Z"/><path class="cls-2" d="M578.01,243.11c-2.23,0-5.71-2.12-11.49-12.71-4.56-8.36-9.36-19.88-13.52-32.43-1.74-5.26-3.3-10.5-4.62-15.55l3.5-.92c1.31,4.98,2.84,10.14,4.56,15.33,9.31,28.15,18.95,42.63,21.59,42.63.02,0,.03,0,.05,0,2.12-1.38,1.26-18.8-8.11-47.12-1.61-4.87-3.32-9.59-5.08-14.01l3.36-1.34c1.78,4.49,3.52,9.27,5.15,14.21.65,1.97,15.87,48.36,5.79,51.71-.35.12-.74.2-1.18.2Z"/><path class="cls-2" d="M548.82,236.96c-1.98,0-4.95-1.8-9.34-11.42-3.3-7.24-6.58-17.12-9.22-27.81-.84-3.39-1.59-6.79-2.24-10.08l3.55-.7c.63,3.24,1.37,6.57,2.2,9.91,5.77,23.34,12.67,35.79,15.04,36.45,1.8-1.69,2.1-15.92-3.67-39.27-.85-3.44-1.77-6.8-2.73-9.98l3.47-1.05c.98,3.24,1.91,6.66,2.77,10.16,2.64,10.7,4.35,20.96,4.8,28.91.7,12.24-1.82,14.3-3.76,14.78-.27.07-.56.11-.87.11Z"/><path class="cls-2" d="M524.84,235.61c-2.67,0-5.09-3.45-7.78-11.04-2.38-6.71-4.57-15.77-6.18-25.52-.38-2.3-.72-4.58-1-6.78l3.59-.47c.28,2.16.61,4.39.98,6.65,3.47,21.03,8.32,31.89,10.31,33.39,1.41-2.06,2.51-13.91-.96-34.94-.43-2.59-.91-5.2-1.44-7.77l3.55-.73c.54,2.61,1.03,5.28,1.46,7.91,1.61,9.74,2.44,19.03,2.34,26.15-.12,8.58-1.46,12.62-4.34,13.09-.18.03-.35.04-.53.04Z"/><path class="cls-2" d="M505.08,228.07c-.53,0-1.21-.15-1.95-.67-3.89-2.79-7.63-16.16-9.61-28.18-.14-.84-.27-1.69-.4-2.52l3.58-.54c.12.81.25,1.63.39,2.46,2.52,15.28,6.13,23.75,7.81,25.55,1.02-2.24,1.72-11.42-.81-26.7-.19-1.16-.39-2.3-.6-3.42l3.56-.67c.22,1.15.42,2.31.62,3.5,1.26,7.63,1.89,14.93,1.76,20.53-.15,6.93-1.35,10.21-3.9,10.63-.14.02-.29.04-.46.04Z"/><path class="cls-2" d="M488.66,226.93c-.51,0-1.17-.14-1.87-.69-3.53-2.76-6.24-15.6-7.48-25.75l-.03-.22,3.6-.42.02.2c1.56,12.73,4.13,20.37,5.57,22.67.84-2.58,1.5-10.61-.06-23.34-.06-.48-.12-.95-.18-1.41l3.59-.49c.07.49.13.98.19,1.47.84,6.88,1.15,13.43.88,18.44-.35,6.31-1.55,9.25-3.9,9.53-.1.01-.21.02-.32.02Z"/><path class="cls-2" d="M472.51,224.88c-5.37,0-7.11-15.99-7.51-20.93l3.61-.3c.82,9.88,2.7,15.61,3.83,17.25.98-1.89,2.22-8.54,1.58-19.36l3.62-.21c.23,3.87,1.06,23.17-4.95,23.55-.06,0-.11,0-.17,0Z"/><path class="cls-2" d="M457.5,220.53c-3.71,0-5.39-7-6.14-12.92l3.59-.46c.69,5.4,1.81,8.33,2.51,9.4.66-1.25,1.63-4.83,1.7-11.24l3.62.04c-.06,5.58-.81,14.98-5.14,15.18-.04,0-.09,0-.13,0Z"/><path class="cls-2" d="M557.4,175.92c-5.9,0-14.78-14.73-19.74-23.9l3.18-1.73c9.02,16.7,14.88,22,16.41,22.02.95-1.13.87-8.75-5.37-25.85l3.4-1.25c2.45,6.73,7.88,22.97,5.32,28.49-.58,1.26-1.46,1.79-2.09,2.02-.36.13-.73.19-1.11.19Z"/><path class="cls-2" d="M536.53,180.04c-5.31,0-12.84-13.25-16.95-21.36l3.23-1.64c7.06,13.92,11.97,18.92,13.49,19.35.71-1.38.51-8.21-4.47-22.51l3.42-1.2c2.13,6.13,6.81,20.88,4.14,25.6-.66,1.16-1.58,1.57-2.24,1.7-.2.04-.4.06-.6.06Z"/><path class="cls-2" d="M516.81,186.34c-4.83,0-11.15-11.24-15.67-20.87l3.28-1.55c6.18,13.16,10.66,18.14,12.15,18.73.67-1.45.58-8.09-3.77-21.76l3.45-1.1c1.9,5.99,6.04,20.4,3.32,24.9-.67,1.12-1.59,1.49-2.24,1.61-.17.03-.35.05-.52.05Z"/><path class="cls-2" d="M497.77,191.49c-4.54,0-9.11-11.08-12.18-20.48l3.44-1.13c3.87,11.85,7.19,16.88,8.52,17.83.75-1.53,1.31-7.9-1.15-20.98l3.56-.67c1.11,5.89,3.36,20.04.32,24.08-.75.99-1.64,1.27-2.26,1.33-.08,0-.17.01-.25.01ZM497.83,187.88h0s0,0,0,0Z"/><path class="cls-2" d="M483.13,195.03c-4.15,0-7.78-10.48-10.12-19.46l3.5-.92c2.56,9.81,5.02,14.71,6.28,16.27.54-2.05.82-8.04-1.03-18.78l3.57-.62c1.76,10.2,2.88,22.55-1.72,23.45-.16.03-.32.05-.48.05Z"/><path class="cls-2" d="M469.16,197.56c-1.61,0-4.94-1.62-9.3-17.08l3.48-.99c2.46,8.73,4.58,12.59,5.64,13.92.49-1.87.78-7.01-.64-16.32l3.58-.55c2.01,13.21,1.3,20.26-2.13,20.94-.17.03-.38.08-.64.08Z"/><path class="cls-2" d="M454.85,202.14c-1.51,0-4.75-1.34-8.17-16.88l3.54-.78c1.84,8.35,3.63,12.15,4.57,13.51.61-1.82,1.23-6.88.44-16.15l3.61-.3c1.11,13.21-.07,20.13-3.51,20.58-.13.02-.29.04-.48.04Z"/><path class="cls-2" d="M542.51,137.99c-34.48-25.91-85.76-26.39-94.39-15.59-1.17,1.46-3.27,5.38,2.38,10.22,3.06,2.62,4.32,5.3,3.87,8.18-1.47,9.21-20,18.75-27.02,21.65l-1.31.54.77,5.16,1.32.2c4.5.7,11.99,8.83,14.5,11.91l.85,1.04,101.61-41.39-2.56-1.92ZM478.03,139.12c-.25-1.99-1.39-3.61-3.28-4.7-3.14-1.8-3.19-2.71-3.19-2.72,0-.2.35-1,4.34-2.78.73-.33,1.55-.46,2.39-.46,2.64,0,5.52,1.32,6.82,2.08,3.21,3.43,4.76,6.83,4.62,10.13-.17,4.04-2.89,6.75-3.29,7.13l-19.67,13.93-10.87,7.26,14.72-15.83c.84-.82,8.15-8.18,7.4-14.04ZM492.62,144.62l12.78,7.53-3.52,1.44-10.54-6.22c.47-.79.92-1.71,1.28-2.75ZM471.19,163.05l2.51,2.02-3.24,1.32-1.98-1.43.35-.23,2.36-1.67ZM472.73,161.96l1.8-1.27,3.7,2.54-2.6,1.06-2.9-2.32ZM476.1,159.57l2.4-1.7,5.21,3.12-3.47,1.41-4.13-2.83ZM480.11,156.73l2.56-1.81,6.04,4.03-2.91,1.18-5.69-3.41ZM484.26,153.8l2.73-1.93,7.78,4.62-4.02,1.64-6.49-4.33ZM488.6,150.72l.02-.02.14-.11c.07-.06.75-.66,1.56-1.72l9.45,5.57-2.9,1.18-8.26-4.91ZM466.87,166.04l1.61,1.16-8.58,3.5,6.97-4.66ZM524.74,144.28l-16.05-8.82-.87,1.59,14.75,8.11-3.2,1.3-16.15-9.41-.91,1.57,14.94,8.7-3.43,1.4-15.64-8.47-.86,1.6,14.33,7.76-4.15,1.69-14.41-8.49c.12-.61.2-1.24.24-1.91.21-4.4-1.74-8.78-5.78-13.03l-.16-.16-.19-.12c-.29-.18-7.22-4.45-12.78-1.97-3.2,1.43-6.34,3.06-6.49,5.91-.14,2.78,2.79,4.78,5.01,6.05,1.19.68,1.41,1.47,1.48,2.01.4,3.08-3.68,8.38-6.4,11.05l-23.95,25.75c-2.7-3.08-8.72-9.45-13.87-11.23,5.75-2.57,25.9-12.34,27.73-23.79.66-4.17-1.05-8.05-5.09-11.51-3.6-3.08-2.37-4.62-1.9-5.2,6.08-7.6,51.88-10.09,86.77,14.33l-12.98,5.29Z"/><path class="cls-2" d="M531.61,446.78l-3.49-.67c0-3.28,2.38-8.68,5.81-14.76,6.01-14.71,15.06-36.26,18.37-41.08.24-.34,21.7-31.75,13.72-140.97l3.61-.26c8.1,110.95-13.46,142.06-14.38,143.33-1.87,2.71-5.86,11.55-10.05,21.34,5.88-8.46,11.35-15.58,12.79-17.44,35.27-62.27,25.91-143.93,25.81-144.75l3.6-.44c.1.83,9.6,83.78-26.33,147.09l-.14.22c-5.49,7.07-16.89,22.59-23.71,34.47-3.22,7.87-5.55,13.75-5.62,13.92Z"/><path class="cls-2" d="M508.85,412.69l-3.48-.71c0-2.82,2.16-7.44,5.27-12.62,5.46-12.52,13.7-30.91,16.72-35.03.22-.29,19.59-26.95,12.38-119.55l3.61-.28c7.35,94.41-12.26,120.94-13.1,122.02-1.51,2.06-4.69,8.54-8.28,16.34,4.91-6.56,9.32-11.93,10.55-13.43,31.88-52.78,23.44-122.07,23.35-122.76l3.59-.46c.09.71,8.72,71.31-23.92,125.22l-.15.22c-6.88,8.31-15.95,20.2-21.46,29.22-1.91,4.39-3.67,8.49-5.08,11.82Z"/><path class="cls-2" d="M493.91,374.6l-3.47-.72c0-2.28,1.75-5.99,4.27-10.14,4.44-10.01,11.17-24.79,13.65-28.11.18-.23,15.81-21.48,9.97-95.16l3.61-.29c5.98,75.5-10.03,96.79-10.71,97.66-1.01,1.35-2.99,5.21-5.29,10.04,3.14-4.03,5.75-7.16,6.6-8.18,25.78-42,18.95-97.15,18.88-97.7l3.59-.47c.07.57,7.1,57.06-19.45,100.19l-.16.22c-5.4,6.41-12.87,16.05-17.39,23.29-1.65,3.73-3.1,7.06-4.1,9.37Z"/><path class="cls-2" d="M475.77,347.69l-3.44-.79c0-1.99,1.64-5.14,4.02-8.67,4.12-8.36,10.3-20.54,12.63-23.35.17-.2,14.51-17.77,9.13-78.7l3.61-.32c5.55,62.86-9.35,80.65-9.99,81.38-.79.95-2.24,3.43-3.96,6.62,2.24-2.55,4.11-4.57,5.07-5.6,23.75-34.76,17.44-80.33,17.38-80.79l3.58-.52c.07.47,6.58,47.55-18.05,83.48l-.17.21c-5.29,5.64-11.98,13.47-16.02,19.28-1.52,3.09-2.86,5.84-3.78,7.76Z"/><path class="cls-2" d="M460.88,324.27l-3.42-.89c.06-1.7,1.48-4.3,3.52-7.18,3.52-6.72,8.74-16.43,10.68-18.67.14-.16,11.94-14.08,9.36-63.72l3.62-.19c2.68,51.54-9.74,65.74-10.27,66.32-.37.43-.95,1.29-1.66,2.46.76-.8,1.42-1.48,1.94-2.01,19.76-27.61,16.01-64.81,15.97-65.18l3.6-.39c.17,1.58,3.93,39.06-16.71,67.8l-.18.21c-4.92,5.03-10.11,10.96-13.26,15.28-1.14,2.17-2.22,4.28-3.17,6.15Z"/><path class="cls-2" d="M450.93,300.94l-3.38-.97c.05-1.39,1.28-3.43,3.07-5.69,3.01-5.11,7.51-12.51,9.21-14.23.12-.12,10.06-10.57,7.69-47.91l3.61-.23c1.7,26.79-2.76,40.39-5.92,46.5,13.5-20.13,10.59-44.87,10.56-45.13l3.59-.46c.15,1.21,3.55,29.91-14.25,51.82l-.19.2c-4.18,3.77-8.6,8.23-11.27,11.44-.99,1.67-1.92,3.27-2.72,4.66Z"/><path class="cls-2" d="M435.54,289.36l.43-6.95c.07-1.18,1.16-2.83,2.74-4.65,2.67-4.05,6.57-9.81,8.07-11.17.1-.09,8.49-8.1,7.27-37.57l3.62-.15c.7,16.91-1.67,27.21-4.08,33.18,9.05-14.86,7.38-31.7,7.36-31.89l3.6-.39c.11.97,2.39,24.05-13.08,41.17l-.2.19c-3.53,2.85-7.33,6.3-9.61,8.76-.85,1.29-1.66,2.53-2.35,3.61l-3.76,5.86Z"/><path class="cls-2" d="M433.57,405.11l-1.07-1.6c-.38-.57-9.07-14,.39-30.06l-23.13-50.24,3.06-1.89c.33.41,8.19,10.07,22.01,7.51l1.8-.33,6.4,36.89c6-3.08,22.5-10.21,34.97-2.96l2.2,1.28-9.49,8.19-.99-.36c-.29-.1-5.7-1.96-11.17.22,3.16.35,6.87,1.38,9.55,4.01l1.41,1.38-10.63,9.17-.95-.28c-4.24-1.26-12.01-2.41-14.79-.18-.52.41-1.19,1.18-1.06,2.99.2,2.21.93,5.08,1.72,5.76l1.67,1.47-11.92,9.04ZM416.42,329l20.57,44.69-.52.83c-7.09,11.33-3.72,21.37-1.88,25.26l5.54-4.2c-1.22-2.38-1.57-5.67-1.64-6.46-.22-3.27,1.19-5.12,2.41-6.1,4.5-3.61,13.92-1.57,17.11-.73l5.97-5.15c-4.46-2.69-11.07-1.77-11.15-1.76l-5.41.78,3.87-3.86c6.83-6.81,15.61-5.28,18.61-4.49l3.93-3.39c-13.22-5.29-31.03,5.22-31.22,5.33l-2.26,1.36-6.67-38.43c-7.43.92-13.25-1.23-17.27-3.67Z"/><path class="cls-2" d="M471.62,402.78l-.99-3.7c-1.89-7.04-8.34-10.65-8.41-10.69l-2.41-1.32,11.84-9.3,1.13,1.18c7.18,7.5,3.83,16.83,1.06,20.71l-2.23,3.12ZM466.16,386.7c1.88,1.44,4.56,3.94,6.43,7.52,1.08-2.93,1.76-7.35-1.35-11.51l-5.07,3.99Z"/><path class="cls-2" d="M487.01,390.76l-1.69-4.7c-2.82-7.83-10.31-10.57-10.39-10.6l-2.91-1.04,10.83-9.49,1.19,1.04c8.99,7.87,4.86,19.59,4.68,20.09l-1.71,4.69ZM478.79,373.31c2.1,1.19,5.04,3.3,7.4,6.65.13-3-.45-6.89-3.4-10.14l-3.99,3.49Z"/><path class="cls-2" d="M449.38,413.8c-8.12,0-13.17-5.4-13.43-5.68l-1.27-1.39,11.4-9.68.81,2.62c1.13,3.67,7.14,8.31,9.37,9.79l3.06,2.04-3.48,1.19c-2.32.79-4.47,1.11-6.45,1.11ZM440.05,406.92c1.95,1.49,5.81,3.7,10.96,3.16-2.16-1.75-4.87-4.27-6.48-6.96l-4.47,3.8Z"/><path class="cls-1" d="M415.24,170.08l2.61-2.54s22.55,3.68,30.32,37.79c6.79,29.8-7.13,47.13-7.13,47.13l-4.4-9.16s11.21-11.4,5.35-40.84c-5.33-26.75-26.75-32.38-26.75-32.38Z"/><path class="cls-2" d="M541.44,394.84c-1.98-1.28-4.37-2.95-4.99-3.54-.53-.84-1.58-1.25-2.57-.95-1.2.37-1.87,1.63-1.5,2.83.15.48.31.97,2.16,2.4l-1.26,2.67c-.54-.2-1.11-.3-1.7-.27-1.22.05-2.35.6-3.27,1.6-1.47,1.6-2.28,4.25-2.17,7.1.04,1.13.24,2.22.55,3.22-4.97-.11-11.39,3.1-17.94,9.09-1.07-1.99-3.58-3.36-6.59-3.36-.84,0-1.65.11-2.39.31l-2.08-1.92c.2-.17.4-.33.62-.51.96-.8,1.09-2.23.29-3.19-.8-.96-2.23-1.09-3.19-.29-1.81,1.51-4.12,3.31-4.86,3.72-.96.26-1.66,1.14-1.66,2.19,0,1.25,1.01,2.27,2.26,2.27.5,0,1.01,0,2.92-1.36l1.81,1.67c-.54.78-.84,1.68-.84,2.64,0,2.61,2.22,4.73,5.31,5.34-1.29.98-2.54,1.85-3.75,2.63-.37-2.05-1.27-3.9-1.27-3.9-.38,1.69-3.17,5.14-5.11,7.39-3.72,1.68-6.51,2.31-7.81,2.54-1.67-1.73-3.08-2.72-3.22-2.82-.16-.11-.34-.2-.53-.27-8.72-3.08-16.09-2.85-22.2-.88,1.11-1.45,2.46-3,3.46-3.47,0,0-11.34,2.48-15.49,10.52-7.26,6.47-11.01,14.54-11.75,16.22-1.17,2.71-2.6,4.98-3.86,6.7l-1.34-2.03s-3.7,4.48-4.16,9.53c-4.06,8.54-.79,17.14,1.4,21.35-5.9.85-11.06,2.49-13.36,3.29-.23-1.25-.41-2.75-.16-3.44,0,0-4.58,3.6-6.9,6.3-1.32.61-2.92,1.36-4.85,2.28l.1-5.61s-9.35,7.05-9.97,10.47c-1.02.51-2.1,1.05-3.23,1.62-.66-.67-1.57-1.94-1.18-3.52,0,0-2.99,3.75-4.6,6.45-2.16,1.1-4.47,2.28-6.95,3.55-2.8-.1-5.3.42-7.46,1.2,7.02-11.73,20.21-16.83,20.36-16.88.18-.07.36-.16.52-.27.47-.33.91-.67,1.36-1,10.14-.84,14.72-11.38,14.72-11.38-.92.85-2.81,1.07-4.18,1.1,2.35-3.08,4.04-6.09,5.25-8.9,2.34-1.22,6.42-1.96,6.42-1.96-.08-.41-2.95-1.88-4.75-2.76,1.78-6.37,1.19-10.9,1.13-11.29-.04-.3-.15-.58-.3-.84-.15-.25.37-1.45,1.26-2.45,2.33-1.27,4.2-2.59,5.69-3.89,3.69-.25,5.4-1.87,5.4-1.87-.48,0-1.3-1.13-1.92-2.1,3.5-5.45,1.58-10.02,1.46-10.3-.08-.19-.19-.36-.32-.51-2.61-3.2-5.23-4.57-7.51-5.02-.41-1.54-.87-3.8-.27-4.57,0,0-2.59,1.7-3.9,4.64-.39.09-.75.2-1.07.32-4.72,1.69-8.02,6.71-8.02,10.15,0,2.29-2.6,3.34-3.45,3.62-8.64-.27-15.68,2.2-20.99,7.31-4.55,4.38-7.1,10.09-8.26,15.18-1.68,2.17-4.22,5.13-5.29,4.75,0,0,2.44,2.89,4.01,4.43-.42,1.43-1.1,3.19-1.96,5.16-17.41-16.05-31.51-20.2-41.92-12.32-4.44,3.37-10.31,4.44-17.44,3.2-13.93-2.43-28.94-13.39-33.16-19.86-6.95-10.68-16.57-10.64-18.18-10.56-13.02-.88-23.14,3.64-23.57,3.84-.53.24-.95.68-1.17,1.22-2.87,7.2-7.14,9.88-9.36,10.82-2.62-4.13-6.39-6.55-10.05-8.9-3.71-2.38-7.21-4.63-9.59-8.59-1.93-3.22-4.46-5.19-7.53-5.86-5.11-1.11-9.69,2-9.88,2.14-.09.06-.17.13-.25.2l-14.65,13.59c-2.86-6.6-10.27-13.38-11.24-14.25-.58-.52-1.38-.7-2.12-.49-.13.04-.24.1-.35.15-1.24-7.69-4.7-11.54-7.34-13.4.23-2.42,1.59-5.8,7.66-4.45,0,0,1.43,4.17-1.07,4.29,0,0,0,3.45,2.38,1.91,0,0,6.42-7.74.23-11.43,0,0-3.8.84-6.18.12,0,0-7.31,2.3-8.03,7.3-3.97-1.04-7.79.21-11.01,2.19,1.06-5.03.97-9.51.96-9.85-.03-1.21-1-2.22-2.2-2.24-1.21-.05-2.22.86-2.3,2.06-.26.94-3.11,3.46-6.01,5.32-.14.07-.31.16-.51.25-1.44.7-3.94,1.93-6.19,3.82l-1.3-3.15s.48-2.14,2.5-2.02c0,0,5.59-4.05,5.59-5.95l-5.82-.24s-8.68,4.05-12,10.48c0,0,1.31,2.86.12,2.86,0,0,.83,1.55,2.02.95,1.19-.59.35-.48.35-.48,0,0,3.45-3.34,4.04-2.98.41.25,2.05,1.28,3.04,1.9-1.23,1.29-2.27,2.83-2.85,4.63-.92,2.87-.54,5.92,1.14,9.05,6.27,11.68,26.72,2.79,27.59,2.41.05-.02.1-.05.15-.07,1.21-.65,2.1-1.05,2.75-1.3l-.16,2.54c-.3-.1-.62-.16-.94-.13-.77.07-1.46.54-1.81,1.23l-8.2,16.13c-.99-5.47-5.13-9.35-5.13-9.35l-.41,2.66c-5.11-6.01-11.82-10.54-20.6-11.61-.13-.01-1.79-.17-3.75.34-.07-3.43-3.48-6.11-7.82-6.11-1.22,0-2.36.22-3.38.6l-1.61-1.48c.2-.17.4-.33.62-.51.96-.8,1.09-2.23.29-3.19-.8-.96-2.23-1.09-3.19-.29-1.81,1.51-4.12,3.31-4.85,3.72-.96.26-1.66,1.14-1.66,2.19,0,1.25,1.01,2.27,2.26,2.27.5,0,1.01,0,2.91-1.36l1.6,1.48c-.52.84-.82,1.79-.82,2.8,0,3.49,3.44,6.22,7.83,6.22.54,0,1.06-.04,1.57-.12-1.08,4.12.2,9.84,3.88,17.38-1.09,0-2.22-.22-2.22-.22.82,1.7,3.24,3.68,4.95,4.94,1.48,2.34,3.56,5.38,6.24,8.72-1.47.51-3.83.39-3.83.39.74,2.32,4.41,2.79,6.58,2.87,2.13,2.42,4.55,4.91,7.26,7.34-1.4.32-3.73.15-3.73.15.59.37,4.84,2.14,8.01,3.44,3.74,2.92,7.95,5.65,12.6,7.91-.07.43-.12.87-.15,1.32-1.62.81-2.96,2.01-3.79,3.42-.78,1.32-1.06,2.76-.82,4.09-.07.07-.13.13-.19.2l-2.25,2.94c-.18-.19-.36-.37-.56-.57-.88-.89-2.32-.89-3.2,0-.88.88-.89,2.32,0,3.21,1.66,1.67,3.65,3.81,4.13,4.51.32.87,1.16,1.48,2.12,1.48.06,0,.13,0,.2,0,1.25-.11,2.17-1.21,2.06-2.45-.04-.5-.1-1.02-1.61-2.8l2.12-2.77c.55.29,1.16.51,1.82.64.5.1,1.01.15,1.53.15,1.14,0,2.32-.24,3.45-.69,2.15,2.04,4.98,3.93,8.48,5.65.67.41,4.01,2.33,8.86,3.69.39,1.4-1.8,3.68-1.8,3.68,5.95.95,12.07-1.23,14.99-2.5,1.57-.17,3.17-.47,4.79-.92.07-.02.13-.04.2-.06.02,0,.5-.18,1.31-.36,1.55,1.47.09,3.84.09,3.84,2.34.21,8.7-2.48,10.46-3.25,1.12.38,2.28.89,3.45,1.55-.09,3.46.5,8.38,3.54,13.25,1.12,1.79,2.48,3.43,4.07,4.92-1.66,1.93-6.3,5.2-6.3,5.2,1.79.36,9.81.04,13.69-.14,2.47,1.24,5.23,2.28,8.27,3.13-.74,2.62-4.14,8.79-4.14,8.79,1.54,0,9.41-5.32,12.33-7.33.05,0,.1,0,.15,0,1.62,0,4.07-.08,7.09-.41,1.14,3.16-.91,6.55-.91,6.55,2.03-.28,7.65-5.73,10.05-8.14,2.11-.51,4.31-1.14,6.57-1.94.84,1.82-.57,4.84-.57,4.84,3.27-.09,7.93-6.05,10.09-9.09,2.36-1.31,4.71-2.83,6.99-4.59,1.88,6.24,2.33,11.7-.1,14.38-.1.11-.19.23-.27.36l-9.35,15.72c-.59,1-.34,2.28.59,2.98.4.3.88.45,1.35.45.61,0,1.22-.25,1.66-.73.06-.07,6.52-6.98,14.63-8.06.05,0,.11-.02.16-.03.1-.02,5.91-1.33,9.74-7.14,1.64,5.39,4.58,10.12,9.79,11.36.73.18,1.5-.03,2.06-.54.55-.51.82-1.27.7-2.01-1.09-7.11-1.45-19.58,2.25-22.72.54-.46.83-1.14.79-1.84-.13-2.69-2.1-8.05-8.59-9.33-1.25-.47-2.88-1.15-4.72-2-.04-.34-.14-.68-.34-.99-.39-.59-1.38-2.58-.86-3.84.4-.96,1.77-1.47,2.92-1.73,2.75-.19,10.1.09,13.56,3.52,1.48,1.47,2.12,3.39,1.96,5.87-.03.37.05.76.2,1.1.08.18,1.77,4.19-2.1,8.98-.11.04-.22.06-.33.11-1.29.61-2.25,2.25-2.86,4.89-1.29,5.82,4.08,9.51,7.45,10.78.25.1.52.14.79.14,8.35,0,13.29,2.74,14.04,3.18,12.76,11.22,19.16,12.56,21.48,12.56.42,0,.71-.04.88-.08,1.1-.25,1.85-1.26,1.76-2.39-.09-1.13-.99-2.02-2.12-2.09-2.39-.15-9.29-5.8-14.48-11.08-1.59-4.06-3.83-7-6.05-9.1,5.81,1.7,8.32,6.05,8.45,6.28,5.01,9.36,19.74,11.66,20.37,11.75,1.21.17,2.34-.63,2.56-1.84.22-1.21-.56-2.37-1.75-2.62-1.02-.22-2.7-1.98-4.44-4.35,11.42,3.75,30.43,5.3,36.86,5.74.43.05.83.07,1.21.07,1.22,0,2.22-.97,2.26-2.2s-.9-2.26-2.12-2.33c-.37-.02-.75-.05-1.13-.07-5.96-.76-19.32-7.62-27.05-11.9,1.28-.88,2.6-1.99,3.9-3.21.18-.12.35-.25.5-.42.12-.14.24-.27.36-.41.99-.97,1.97-2,2.9-3.02,5.71-5.39,10.6-6.86,13.9-7.07,1.89,3.41,6.07,4.77,6.07,4.77-.17-.78.16-2.55.35-3.47.97.35,1.94.67,2.91.97,2.56,2.26,7.68,6.19,7.68,6.19-.33-.82.24-2.92.63-4.16,3.27.59,6.45.92,9.47,1.06,4.44,2.99,16.16,7.87,16.16,7.87-2.02-2.8-2.87-6.91-3.13-8.38,4.35-.54,7.98-1.36,10.63-2.08,3.43.18,10.55.11,10.55.11,0-1.67-.95-3.17-1.58-3.99,2.52-1.53,5.41-3.57,8.23-5.97,1.57-.44,3.62-1.55,4.4-2.43.95-1.07,6.3-4.05,6.3-4.05-.36-.65-2.42-.56-3.99-.38,1.62-2.03,3.01-4.19,4.01-6.43,2.29-5.1,2.45-10.05.46-14.72-1.91-4.49-5.27-7.14-9.26-8.58.11-2.81,2.58-6.62,5.62-9.86,5.38-2.54,15.27-4.43,15.27-4.43-.28-.7-1.7-1.85-2.83-2.68,4.59-.73,11.06-1.76,18.53-8.21,7.31-3.3,11.16-9.71,11.16-9.71-.13.32-1.63.36-3.01.34,1.91-3.38,2.65-6.85,2.19-10.35-.05-.38-.13-.74-.2-1.1,1.86-.11,5.46-.17,12.35.08.52.02,1.03.03,1.54.03.78,0,1.55-.03,2.3-.07,1.63.47,3.05,1.15,3.37,2.15,0,0,.82-1.05.53-2.58,15.77-2.6,24.87-14.83,26.46-24.06.39-2.29.22-4.33-.47-6,.56-.27,1.08-.66,1.55-1.16,1.47-1.59,2.28-4.25,2.17-7.1-.07-1.71-.44-3.25-1.04-4.54.03-.05.07-.09.09-.14l1.58-3.35c.22.14.43.28.67.44.38.25.81.36,1.23.36.74,0,1.47-.36,1.9-1.04.68-1.05.38-2.46-.67-3.14ZM531.76,402.54c.41.24,1.31,1.57,1.4,3.87.09,2.3-.7,3.7-1.09,3.96-.41-.24-1.31-1.57-1.4-3.87-.09-2.29.69-3.69,1.09-3.96ZM499.56,421.16c.06-.24.95-1,2.61-1s2.52.73,2.61.98c-.08.25-.98.99-2.61.99s-2.55-.76-2.61-.97ZM351.53,541.2c-2.77,2.71-5.36,4.76-6.56,5.09-2.48-1.97-12.44-9.41-24.46-12.16,2.8-2.2,4.43-5,5.07-7.03.25-.79.05-1.64-.52-2.24-.57-.6-1.41-.84-2.21-.63-3.39.88-6.61.07-9.2-1.14,3.57-.96,8.74-2.93,15.48-6.95,6.78-1.76,24.21-4.22,28.3,4.31,4.58,9.53,1.42,12.92-1.37,15.91-.37.4-.72.77-1.01,1.12-.35.41-.72.81-1.08,1.2-.8.77-1.62,1.61-2.44,2.52ZM258.46,511.17c-.4-3-.4-7.33,1.1-9.15.33-.4.85-.85,2-.85,5.12,0,5.55,2.41,5.58,2.92.02.71.36,1.37.94,1.79.59.43,1.35.54,2.04.31.71-.24,6.69-2.37,7.66-7,5.17,3.53,10.91,7.65,15.8,11.66-.05,0-.1,0-.15,0-14.56.73-30.77,1.02-34.97.32ZM376.18,457.02c4.46-4.3,10.52-6.34,18.05-6.04.21,0,.43-.01.64-.07,2.65-.66,7.14-3.12,7.14-8.09,0-1.4,1.95-4.78,5.01-5.88,2.52-.9,5.04.09,7.47,2.93.35,1.25,1.2,6.82-9.02,12.28-.2.11-.38.24-.54.4-.43.43-4,4.17-2.41,7.7.2,2.46.68,18.04-17.89,31.35-2.48.99-18.81,8.02-25,24.06-2.03-2.33-4.8-3.8-7.88-4.67,3.49-5.74,16.76-28.05,16.76-35.52,0-4.11,1.61-12.63,7.66-18.45ZM229.95,451.36c2.52-.99,10.76-3.82,20.74-3.1.12,0,.25,0,.36,0,.34-.02,8.3-.56,14.2,8.5,4.66,7.16,20.23,19.07,36.17,21.85,8.42,1.47,15.47.11,20.95-4.05,12.77-9.68,30.64,6.93,36.51,12.39.25.23.47.44.68.63-3.57,7.31-8.57,16.07-12.32,22.14-.08.12-.14.25-.19.39-4.3-.46-8.73-.14-12.27.35.42-1.66,1.22-4.01,2.5-4.39,0,0-9.53,2.23-13.3,7.79-8.35,4.56-13.46,5.42-15.24,5.58-.37-.34-.88-.79-1.46-1.29-5.75-8.11-22.1-19.59-32.59-26.49-1.54-1.47-3.63-2.94-6.3-4.41-.3-.17-.64-.26-.99-.28,0,0-.03,0-.04,0-.81-.5-1.4-.87-1.71-1.06-7.39-6.82-33.49-17.05-37.08-17.38-.41-.04-.84-.06-1.28-.08-2.65-.12-5.38-.25-8.31-4.89,3.02-1.41,7.73-4.71,10.97-12.2ZM182.39,442.05c.58-.36,3.41-1.98,6.24-1.37,1.79.39,3.34,1.65,4.6,3.76,2.92,4.88,7.04,7.52,11.03,10.08,3.79,2.43,7.37,4.73,9.41,8.82,4.61,9.23,9.9,9.48,13.41,9.64.38.02.74.03,1.08.06,2.67.27,23.87,8.57,32.41,14.6-3.8.84-8.39,2.67-11.6,6.65-3.19,3.94-4.39,9.18-3.6,15.6-1.06-.25-2.38-.55-3.9-.86-2.25-1.78-5.45-4.46-5.45-5.23,0,0-.91,2.35-1.09,4.03-1.66-.27-3.41-.52-5.23-.74-2.45-1.46-8.25-5-9.22-6.46.46.95,1.91,4.23.94,5.74-3.29-.16-6.63-.17-9.89.07-1.77-1.42-5.58-4.21-8.42-4.3,0,0,2.24,3.29,2.39,5.07-4.52.85-8.65,2.32-11.9,4.69-1.7-.61-6.77-2.86-11.74-9.16-.14-2.26-.18-5.17.46-5.6,0,0-3.25-1.36-5.18-1.64-.97-1.22-3.5-4.13-7.39-6.68-.17-2.18-.68-6.16-2.05-6.68,0,0-1.41,2.97-2.7,4.16-1.8-.75-3.79-1.34-5.93-1.67.04-1.73-.22-5.6-3.25-6.06,0,0-.51,4.25-2.42,5.85-4.75.35-10.1,2.05-15.98,5.91-.26-1.58-.6-3.47-1.05-5.58l46.03-42.69ZM134,436.82c-1.17.49-17.6,7.22-21.71-.43-1.09-2.03-1.36-3.84-.82-5.51,1.2-3.73,6.09-6.12,8.18-7.14.28-.14.52-.25.7-.35.06-.03.11-.06.17-.1.93-.59,2.06-1.36,3.18-2.23-.47,3.07-1.35,6.46-2.9,9-1.25,1.39-2.01,2.44-2.12,2.6-.67.94-.53,2.24.34,3.01.86.77,2.17.76,3.03-.02.86-.79,1.62-1.7,2.27-2.7,3.05-3.34,9.17-8.79,14.65-6.15.12.06.27.11.4.15.34.1,8.05,2.48,7.64,18-.59.65-1.2,1.06-1.82,1.18-.72.13-1.51-.1-2.26-.49l.49-7.63c.12-.84-.09-1.95-1.06-2.71-1.57-1.24-4-.8-8.36,1.53ZM138.48,448.06c1.82,1.52,4.51,3.08,7.52,2.53,1.7-.31,3.21-1.27,4.53-2.82.38-.27.68-.65.84-1.1.59-.86,1.13-1.85,1.63-2.99,3.09,3.16,7.25,8.07,8.22,11.83l-26.07,24.18c-1.22-4.59-2.92-9.72-5.27-14.71l8.6-16.92ZM86.66,441.48c0-.67,1.32-1.68,3.3-1.68s3.3,1.01,3.3,1.68-1.32,1.69-3.3,1.69-3.3-1.01-3.3-1.69ZM99.48,462.97c-4.96-10.15-3.97-14.18-2.94-15.67,1.12-1.62,3.3-1.78,4.14-1.78.21,0,.34.01.34.01h0c25.66,3.13,31.63,42.64,32.45,49.23-.26.43-.52.9-.77,1.39-21.66-10.83-33.12-32.98-33.23-33.18ZM132,509.26c-.51-.1-.88-.32-1-.59-.12-.26-.03-.69.23-1.13.15-.25.36-.49.59-.72.3.84.68,1.67,1.16,2.48-.34.03-.67.02-.97-.03ZM170.15,518.42c-12.05,3.3-23.17-3.46-23.27-3.52-.07-.04-.13-.08-.2-.11-6.68-3.26-10.37-6.95-10.97-10.98-.38-2.53.54-4.87,1.58-6.59.33-.28.58-.66.71-1.08.63-.88,1.2-1.48,1.43-1.71,20.59-13.9,33.21,2.53,34.36,4.13,5.44,10.29,12.35,14.86,16.26,16.75-.98,1.26-1.8,2.67-2.41,4.26-.02.05-.03.09-.05.14-8.67-4.1-16.35-1.65-17.43-1.27ZM216.86,547.74c-11.04-2.02-18.61-6.17-22.49-12.34-4.14-6.58-2.67-13.49-2.47-14.33,6.09-15.34,40.57-9.91,54.4-6.28.03.14.06.27.1.41.06.23.15.44.28.64,3.3,5.25,7.06,12.38,9.64,19.16-16.43,13.42-37.69,12.82-39.45,12.75ZM282.28,536.81c3.47.63,4.58,2.95,4.93,4.26-4.05,4.85-3.88,15.23-3.37,21.34-2.62-2.84-3.94-8.02-4.55-13.04.47-3.11.42-6.83-.41-11.28-.21-1.13-1.22-1.91-2.37-1.84-1.14.07-2.05.99-2.12,2.13-.07,1.11-.28,5.67.31,10.95-1.62,8.78-8.25,10.65-9.01,10.84-2.91.4-5.59,1.38-7.94,2.57l3.54-5.95c9.03-10.52-7.8-38.57-10.59-43.07-1.83-7.24-1.23-12.81,1.78-16.55,3.88-4.82,10.88-5.56,13.59-5.66,1.5.95,3.49,2.22,5.8,3.73,1.44,1.49,1.56,2.46,1.53,2.84-.09,1.06-1.34,2.09-2.61,2.84-1.24-2.17-3.95-4.27-9.22-4.27-2.25,0-4.15.87-5.5,2.51-3.36,4.09-2.24,11.9-1.91,13.78-.85,12.7,24.79,22.68,27.74,23.78.13.05.26.08.39.11ZM279.79,519.32c-.1,0-.2.02-.3.04-3.26.7-5.38,2.21-6.31,4.5-.5,1.23-.55,2.48-.39,3.62-5.94-3.25-12.02-7.52-13.68-11.75,4.63.54,14.18.67,34.42-.35,2.78.21,7.11,3.13,10.34,5.81.13.2.27.41.39.61.09.16.2.3.33.44.3.31,6.44,6.59,14.67,6.88-1.96,2.27-5.63,4.7-12.13,3.81-1.01-.14-1.99.42-2.39,1.35l-4.27,9.99c-.83.54-1.58.8-2.18.75,3.79-5.46,2.65-10.34,2.07-12.02.13-3.59-.98-6.57-3.31-8.88-5.71-5.65-16.78-4.85-17.25-4.81ZM312.91,558.48c-1.6-.92-6.94-3.58-15.45-3.67-1.15-.52-4.87-2.46-4.23-5.36.04-.18.1-.38.16-.59.54.32,1.18.6,1.94.75.39.07.78.11,1.17.11,1.66,0,3.38-.66,5.12-1.98,0,0,0,0,.01-.01,0,1,.65,1.9,1.61,2.18.27.08,5.99,1.82,9.67,8.57ZM335.12,552.18c-.74-.9-2.03-1.09-3-.44-.97.64-1.29,1.91-.75,2.94.68,1.29,2.11,3.89,3.91,6.47-3.39-1.52-6.74-3.74-8.37-6.8-.25-.47-6.37-11.35-21.34-9.02-.26.04-.51.13-.74.25l3.3-7.71c16.84-2.24,34.32,12.2,34.5,12.35.17.14.36.26.56.35.28.12.59.19.9.23,1.47.85,7.99,4.59,15.15,8.06-11.17-1.54-21.77-3.83-24.12-6.68ZM446.25,501.3c1.49,3.51,1.35,7.13-.43,11.09-4.57,10.18-18.31,18.49-22.04,19.74-5.55,1.85-25.3,7.24-46.34-1.13-.34-.15-5.76-2.44-13.51.85.67-2.94.44-6.76-1.72-11.81,1.9-1.57,6.18-4.43,11.74-4.05.42.03.82-.06,1.19-.24,15.75-8.1,33.63-16.96,36.02-17.6.19-.02.39-.07.57-.14.29-.11,28.52-10.82,34.52,3.31ZM429.64,489.54c-1.46-2.36-7.08-12.63-.72-21.49.9-.88,5.03-5.15,7.9-11.77,1.31-3.02,13.54-29.15,40.02-20.04.87.65,4.06,3.25,5.76,7.03-.01.6.21,1.18.61,1.64.16.56.3,1.13.38,1.73.47,3.49-.81,7.05-3.8,10.58-8.69,10.28-15.68,11.38-21.29,12.28-1.61.25-3.12.5-4.52.94-5.72,1.82-16.11,11.43-17.24,19.41-2.31-.35-4.71-.43-7.1-.31ZM529.96,419.72c-1.51,8.77-11.91,21.43-29.57,20.77-5.9-.22-10.24-.24-12.9-.07-.38.03-.79.06-1.19.1-.25-.49-.52-.96-.8-1.41,4.91-1.27,14.27-4.89,24.51-15.08,8.55-8.49,15.6-10.71,18.54-9.18,1.7.89,1.71,3.13,1.41,4.86Z"/><path class="cls-2" d="M220.48,500.62c-.08-.17-.14-.27-.14-.27.02.08.07.17.14.27Z"/><path class="cls-2" d="M368.3,263.76c-.23-25.7-.68-30.91-29.64-32.95h-14.25s-4.53-.45-6.11-.45c0,0-7.24-2.49-11.54-.68,0,0-5.73,1.81-6.26.23,0,0,2.11-6.12,0-10.2l-3.7-.68s-5.66-.91-8.38-1.13c0,0-2.71-4.94-9.05-5.76h-18.59s-3.72,6.65-18.32,15.69c0,0-21.77,53.47,26.28,71.29,0,0-11.95,26.07,13.28,46.55,0,0-6.11,17.29,9.82,26.87v2.93c0,5.19,4.34,12.24,11.42,12.24,0,0,12.91.34,12.91-11.89,0,0-.08-2.15-.57-3.67,0,0,16.38-9.13,10.61-26.14,0,0,25.01-17.23,13.92-46.08,0,0,28.4-10.46,28.17-36.15ZM324.42,231.83s.38,5.32-.71,4.76c-1.19-.61-2.55-.74-2.69-2.77-.11-1.7-.82-.15-.74-2.77,0,0,2.94.13,4.13.78ZM311.55,233.5s2.11.38,2.58.88c0,0-1.1,1.59-1.05,2.21,0,0-2.97-.65-3-1.67,0,0,1.41-1.08,1.47-1.42ZM309.4,235.18c-.11.81-2.86-.48-2.77-.9.08-.42,1.44-1.44,1.38-1.83,0,0,2.07.34,2.83.82,0,0-1.33,1.1-1.44,1.91ZM314.95,234.52s1.94.23,2.26.84c0,0-1.41,2.11-1.89,2.08,0,0-1.1-.59-1.67-.6-.04,0-.08,0-.12,0-.51.09.9-1.93,1.41-2.32ZM317.92,235.37c0-.08,2.36.29,2.66,1.05,0,0-1.36,1.76-1.44,2.24,0,0-2.66-.23-2.57-1.3,0,0,1.36-1.9,1.36-1.98ZM319.95,238.29s1.16-.85.99-1.7c0,0,1.47-.06,2.61.42,0,0-1.1,2.66-1.56,2.64,0,0-2.6.09-2.04-1.36ZM320.01,231.05c-.57,1.06.57,3.81.57,3.81,0,.65-2.66,0-2.66,0-.34-1.5-.71-4.08-.71-4.08.79-.2,2.8.27,2.8.27ZM316.81,230.78c-.14,1.19.4,3.37.4,3.37,0,0-2.43-.51-2.51-.43-.09.08-.57-3.37-.57-3.37.56-.79,2.69.43,2.69.43ZM310.73,229.68c1.81-.16,2.78.16,2.78.16-.17.94.62,3.66.62,3.66-.82,0-2.74-.99-2.74-1.05s.17-.88-.28-1.4c-.6-.69-.37-1.37-.37-1.37ZM309.74,229.68s.5,1.35.99,1.71c.25.19,0,1.06,0,1.06,0,0-2.8-.25-3.28-.57-.48-.31-.79-.88-.82-1.47,0,0,1.38-.95,3.11-.73ZM306.09,230.67l.26,1.44h-2.09s-.28-.09-.31-.67c-.03-.58,1.67-1.08,2.15-.77ZM306.94,232.45s.37.68-.59,1.36c-.4.28-.26.75-.26.75,0,0-3.05.23-3.28-.57,0,0,1.13-.53,1.13-1.54h3ZM300.49,233.75v-1.3h2.32v.94c-.45.62-2.32.37-2.32.37ZM303.58,231.06v1.05l-3.09-.11c.7-1.16,3.09-.94,3.09-.94ZM297.72,225.96s1.03.31,2.77.28v1.39s-1.78.01-2.77.34v-2.01ZM299.5,231.42s-1.06,10.81-2.11,13.07c-1.05,2.27-1.51,3.1-4.15,2.65,0,0,2.57-1.29,2.64-16.14,0,0,1.84-3.22,3.62.42ZM294.41,225.96h2.66v2.01h-2.66s-.74-.97,0-2.01ZM290.59,225.96h2.51c1.22,1.22,0,2.38,0,2.38h-2.51v-2.38ZM294.72,230.4s0,16.36-5.63,15.7c0,0,2.39-2.1,1.5-16.02,0,0,2.15-1.22,4.13.33ZM287.88,225.68c2.6-.62,2.04,1.59,2.04,1.59,0,0,.23,2.33-1.16,2.44-1.38.11-1.84,1.08-1.84,1.08-.76-.31-.79-3.66-.79-3.66,1.31-.57,1.75-1.45,1.75-1.45ZM289.54,232.79v2.39h-2.38s-.57-2.03,0-2.39h2.38ZM286.43,235.18h-2.69v-2.08s1.5-.03,2.24,0c.73.03.45,2.08.45,2.08ZM283.4,229.87s1.59-1.9,2.38-1.48c0,0,.28,1.77.17,2.7,0,0-1.45,1.91-2.21,1.22,0,0-.45-1.53-.34-2.44ZM280.35,230.8c.71-.54,1.34,0,2.04-.77,0,0,.65.29.65,2.47h-2.69s-.7-1.16,0-1.71ZM283.04,233.1v2.08h-2.12s-.57-.07-.57-2.08h2.69ZM279.64,231.2v1.31h-3.42v-1.31s1.95-1.05,3.42,0ZM279.64,233.1v1.84h-2.58s-.68-.17-.45-1.84h3.03ZM273.03,216.29c3,0,5.43,2.44,5.43,5.44s-2.43,5.44-5.43,5.44-5.44-2.43-5.44-5.44,2.43-5.44,5.44-5.44ZM273.51,233.1h2.71v1.91s-1.44.98-2.71-.38v-1.53ZM273.18,232.51v-1.31s1.66-.82,2.76,0v1.31h-2.76ZM272.49,233.1c.94,0,.65,1.84.65,1.84h-2.69v-1.84h2.04ZM270.45,232.51v-1.44h2.43v1.44h-2.43ZM266.94,231.56c0-.77,2.91-.5,2.91-.5v1.44h-2.91v-.94ZM266.32,231.11v1.71h-1.36c-.71.03-1.05-.37-1.05-.37.06-1.45,2.41-1.34,2.41-1.34ZM266.48,234.94s-2.28-.14-2.57-1.44h2.57v1.44ZM266.94,234.43c0-.85.48-.93.48-.93h2.32v1.44s-2.8.34-2.8-.51ZM267.1,317.22s-3.01-12.13,7.87-26.14c11.76-15.15,28.39-14.76,28.39-14.76v27.96s-20.03-2.09-20.11,12.17l-16.16.77ZM281.53,351.81s.81-17.62,22.31-15.2v15.2h-22.31ZM292.31,374.77s-.42-10.21,11.61-9.57v9.57h-11.61ZM304.03,380.8c-6.33,0-4.98-5.55-4.98-5.55,0,0,7.13,1.36,9.84-.57,0,0,1.47,6.12-4.87,6.12ZM307.2,362.32s-5.5-.45-6.71,0c0,0-6.53-2.04-7.21-9.75,0,0,16.97,1.25,18.9-.91h2.6s.34,8.61-7.58,10.65ZM317.26,329.44c-12.33,12.36-31.97,3.1-33.26-11.45-1.25-14.12,16.56-12.81,18.92-12.81,0,0,15.7.45,17.06-.57,0,0,9.62,12.47-2.71,24.83ZM316.59,274.12c-23.76,1.25-43.79-.34-48.09-20.86,0,0-5.54-14.74,20.82-12.58,0,0,1.55,1.82-1.12,5.83,0,0,2.9.81,4.64-1.39l-.29,2.32s3.19,1.8,4.92-.97c1.45-2.32,2.6-10.32,2.26-12.02,0,0,11.77,1.93,13.35,3.06,1.58,1.13,8.62,3.17,10.47,2.61,0,0,13.29.79,16.12,5.33,2.83,4.53.68,27.44-23.08,28.68Z"/><path class="cls-2" d="M273.03,224.12c1.31,0,2.38-1.07,2.38-2.38s-1.07-2.38-2.38-2.38-2.38,1.07-2.38,2.38,1.07,2.38,2.38,2.38Z"/></g><polygon class="cls-2" points="2.74 1.79 22.89 1.79 22.89 9.26 10.43 9.26 10.43 18.23 22.89 18.23 22.89 25.61 10.43 25.61 10.43 42.37 2.74 42.37 2.74 1.79"/><path class="cls-2" d="M51.09,12.35h7.53v30.01h-7.53v-3.17c-1.49,1.39-2.96,2.41-4.43,3.02-1.47.63-3.07.89-4.83.89-3.86,0-7.21-1.5-10.05-4.46-2.83-3.1-4.22-6.77-4.22-11.23s1.36-8.45,4.09-11.38c2.73-2.96,6.03-4.46,9.97-4.46,1.81,0,3.49.42,5.09,1.02,1.57.68,3.04,1.71,4.38,3.1v-3.33ZM43.17,18.59c-2.31,0-4.25.76-5.8,2.47-1.55,1.57-2.31,3.67-2.31,6.24s.76,4.72,2.34,6.4c1.57,1.71,3.51,2.52,5.77,2.52,2.41,0,4.35-.81,5.93-2.41,1.55-1.68,2.31-3.83,2.31-6.51s-.76-4.72-2.31-6.35c-1.57-1.6-3.54-2.36-5.93-2.36"/><path class="cls-2" d="M92.91,18.44l-6.27,3.44c-1.21-1.23-2.36-2.05-3.49-2.57-1.15-.5-2.49-.66-4.04-.66-2.86,0-5.12.81-6.85,2.47-1.76,1.73-2.62,3.83-2.62,6.45s.87,4.59,2.52,6.24c1.68,1.63,3.86,2.41,6.61,2.41,3.38,0,5.98-1.18,7.84-3.44l5.93,4.04c-3.23,4.2-7.74,6.24-13.61,6.24-5.27,0-9.42-1.52-12.41-4.64-2.96-3.12-4.46-6.77-4.46-10.96,0-2.94.73-5.59,2.15-8,1.47-2.52,3.52-4.41,6.14-5.8,2.57-1.36,5.51-2.1,8.68-2.1,2.99,0,5.69.58,8.03,1.81,2.39,1.18,4.33,2.86,5.85,5.06"/><path class="cls-2" d="M96.96,12.34h7.69v14.45c0,2.81.16,4.75.52,5.82.42,1.18,1.05,2.02,1.89,2.62.87.58,1.91.87,3.23.87,1.18,0,2.26-.29,3.12-.87.92-.6,1.52-1.5,1.94-2.68.34-.81.47-2.7.47-5.51v-14.72h7.55v12.7c0,5.25-.45,8.81-1.26,10.73-1.02,2.39-2.52,4.14-4.46,5.48-1.97,1.21-4.46,1.84-7.48,1.84-3.28,0-5.98-.68-8.05-2.15-2.02-1.55-3.41-3.54-4.28-6.19-.53-1.81-.89-5.14-.89-9.94v-12.46Z"/><rect class="cls-2" x="133.29" y=".76" width="7.5" height="41.6"/><polygon class="cls-2" points="148.55 1.27 156.11 1.27 156.11 12.34 160.57 12.34 160.57 18.85 156.11 18.85 156.11 42.35 148.55 42.35 148.55 18.85 144.72 18.85 144.72 12.34 148.55 12.34 148.55 1.27"/><path class="cls-2" d="M188.65,12.35h7.53v30.01h-7.53v-3.17c-1.5,1.39-2.96,2.41-4.43,3.02-1.47.63-3.07.89-4.83.89-3.83,0-7.21-1.5-10.05-4.46-2.81-3.1-4.22-6.77-4.22-11.23s1.36-8.45,4.09-11.38c2.75-2.96,6.06-4.46,9.97-4.46,1.84,0,3.52.42,5.09,1.02,1.52.68,3.04,1.71,4.38,3.1v-3.33ZM180.76,18.59c-2.39,0-4.28.76-5.82,2.47-1.52,1.57-2.31,3.67-2.31,6.24s.81,4.72,2.36,6.4c1.55,1.71,3.49,2.52,5.8,2.52s4.3-.81,5.88-2.41c1.57-1.68,2.34-3.83,2.34-6.51s-.76-4.72-2.34-6.35c-1.57-1.6-3.52-2.36-5.9-2.36"/><path class="cls-2" d="M224.05.75h7.5v41.6h-7.5v-3.17c-1.49,1.39-2.99,2.41-4.43,3.02-1.5.63-3.1.89-4.8.89-3.91,0-7.24-1.5-10.07-4.46-2.83-3.1-4.25-6.77-4.25-11.23s1.39-8.45,4.12-11.38c2.73-2.96,6.06-4.46,9.97-4.46,1.81,0,3.49.42,5.06,1.02,1.55.73,3.04,1.71,4.41,3.1V.75ZM216.13,18.59c-2.36,0-4.25.76-5.8,2.47-1.52,1.57-2.34,3.67-2.34,6.24s.81,4.72,2.34,6.4c1.57,1.71,3.52,2.52,5.8,2.52,2.41,0,4.38-.81,5.93-2.41,1.52-1.68,2.31-3.83,2.31-6.51s-.79-4.72-2.31-6.35c-1.55-1.6-3.57-2.36-5.93-2.36"/><path class="cls-2" d="M279.65,1.57h7.5v41.66h-7.5v-3.23c-1.52,1.44-3.04,2.47-4.49,3.02-1.5.63-3.1.94-4.8.94-3.86,0-7.24-1.5-10.07-4.51-2.83-3.04-4.22-6.77-4.22-11.17,0-4.67,1.36-8.45,4.12-11.38,2.7-2.96,6.06-4.46,9.92-4.46,1.86,0,3.52.31,5.12,1.02,1.55.73,3.02,1.71,4.43,3.1V1.57ZM271.67,19.46c-2.34,0-4.22.76-5.82,2.41-1.55,1.63-2.31,3.72-2.31,6.3s.79,4.72,2.36,6.4c1.57,1.71,3.51,2.52,5.82,2.52s4.3-.81,5.85-2.47c1.57-1.63,2.39-3.78,2.39-6.45s-.81-4.72-2.39-6.35c-1.55-1.6-3.54-2.36-5.9-2.36"/><path class="cls-2" d="M323.47,30.39h-24.21c.37,2.1,1.31,3.78,2.81,5.12,1.5,1.23,3.49,1.84,5.82,1.84,2.83,0,5.22-.97,7.27-2.91l6.3,2.96c-1.57,2.26-3.44,3.91-5.64,4.98-2.23,1.08-4.88,1.57-7.87,1.57-4.7,0-8.55-1.47-11.52-4.41-2.91-3.02-4.46-6.72-4.46-11.17s1.55-8.34,4.41-11.41c3.02-3.02,6.71-4.51,11.15-4.51,4.75,0,8.58,1.5,11.52,4.51,2.94,3.07,4.49,7,4.49,11.99l-.05,1.44ZM315.94,24.49c-.55-1.63-1.5-3.02-2.96-4.09-1.5-1.08-3.17-1.6-5.09-1.6-2.12,0-3.96.63-5.53,1.81-.97.71-1.89,1.99-2.73,3.88h16.32Z"/><polygon class="cls-2" points="348.93 .76 358.01 .76 370.6 30.12 383.82 .76 391.93 .92 391.93 43.5 383.95 43.5 383.95 13.62 373.98 42.37 367.11 42.37 357.12 13.77 357.12 43.5 348.91 43.5 348.93 .76"/><path class="cls-2" d="M427.6,29.57h-24.19c.37,2.1,1.26,3.78,2.81,5.06,1.52,1.23,3.46,1.84,5.8,1.84,2.83,0,5.3-.97,7.27-2.91l6.35,2.96c-1.63,2.26-3.46,3.91-5.69,4.98-2.23,1.08-4.8,1.57-7.84,1.57-4.72,0-8.58-1.47-11.54-4.41-2.94-2.96-4.38-6.72-4.38-11.17s1.44-8.34,4.38-11.36c2.96-3.07,6.69-4.56,11.12-4.56,4.72,0,8.52,1.5,11.54,4.56,2.96,3.02,4.46,6.95,4.46,11.99l-.08,1.44ZM420.07,23.61c-.53-1.68-1.5-3.02-2.91-4.09-1.5-1.02-3.17-1.6-5.14-1.6s-3.88.63-5.53,1.81c-.94.71-1.89,1.94-2.7,3.88h16.29Z"/><path class="cls-2" d="M455.84.75h7.56v41.6h-7.56v-3.17c-1.44,1.39-2.91,2.41-4.38,3.02-1.5.63-3.07.89-4.83.89-3.86,0-7.21-1.5-10.05-4.46-2.83-3.1-4.28-6.77-4.28-11.23s1.42-8.45,4.15-11.38c2.73-2.96,6.09-4.46,9.99-4.46,1.76,0,3.52.42,5.06,1.02,1.55.73,3.04,1.71,4.33,3.1V.75ZM448.02,18.59c-2.36,0-4.35.76-5.9,2.47-1.5,1.57-2.28,3.67-2.28,6.24s.84,4.72,2.36,6.4c1.57,1.71,3.52,2.52,5.82,2.52s4.3-.81,5.82-2.41c1.55-1.68,2.39-3.83,2.39-6.51s-.84-4.72-2.39-6.35c-1.52-1.6-3.52-2.36-5.82-2.36"/><path class="cls-2" d="M473.97,0c1.34,0,2.44.45,3.44,1.42.94,1,1.39,2.12,1.39,3.49s-.45,2.47-1.39,3.38c-.94.97-2.02,1.5-3.33,1.5s-2.54-.52-3.46-1.5c-.97-.97-1.36-2.1-1.36-3.49,0-1.31.39-2.49,1.36-3.44.92-.92,2.05-1.36,3.36-1.36M470.22,12.33h7.55v30.04h-7.55V12.33Z"/><path class="cls-2" d="M513.96,18.44l-6.27,3.44c-1.15-1.23-2.33-2.1-3.52-2.57-1.13-.5-2.47-.66-4.01-.66-2.86,0-5.12.81-6.85,2.47-1.76,1.73-2.62,3.83-2.62,6.45s.87,4.59,2.52,6.24c1.68,1.63,3.83,2.41,6.58,2.41,3.38,0,5.98-1.18,7.87-3.44l5.96,4.04c-3.25,4.2-7.77,6.24-13.64,6.24-5.27,0-9.42-1.52-12.36-4.64-3.04-3.12-4.54-6.77-4.54-10.96,0-2.94.76-5.59,2.23-8,1.44-2.52,3.46-4.41,6.06-5.8,2.54-1.36,5.51-2.1,8.76-2.1,2.96,0,5.61.58,8,1.81,2.39,1.18,4.3,2.86,5.82,5.06"/><path class="cls-2" d="M523.7,0c1.31,0,2.47.45,3.41,1.42.94,1,1.42,2.12,1.42,3.49s-.47,2.47-1.39,3.38c-.97.97-2.1,1.5-3.33,1.5-1.39,0-2.49-.52-3.46-1.5-.94-.97-1.42-2.1-1.42-3.49,0-1.31.47-2.49,1.39-3.44.94-.92,2.1-1.36,3.38-1.36M519.92,12.33h7.53v30.04h-7.53V12.33Z"/><path class="cls-2" d="M534.3,12.34h7.53v3.12c1.71-1.5,3.25-2.52,4.64-3.07,1.42-.52,2.81-.81,4.25-.81,2.96,0,5.51,1.08,7.55,3.12,1.73,1.73,2.68,4.41,2.68,7.84v19.83h-7.48v-13.17c0-3.59-.16-5.95-.5-7.14-.29-1.18-.89-2.05-1.68-2.62-.79-.71-1.78-.97-2.91-.97-1.52,0-2.83.47-3.93,1.55-1.1,1.02-1.86,2.41-2.26,4.25-.26.92-.37,2.91-.37,6.06v12.04h-7.53V12.34Z"/><path class="cls-2" d="M590.36,12.35h7.55v30.01h-7.55v-3.17c-1.5,1.39-2.96,2.41-4.46,3.02-1.44.63-3.04.89-4.8.89-3.83,0-7.19-1.5-10.07-4.46-2.75-3.1-4.22-6.77-4.22-11.23s1.36-8.45,4.17-11.38c2.7-2.96,6.06-4.46,9.89-4.46,1.86,0,3.54.42,5.09,1.02,1.6.68,3.07,1.71,4.41,3.1v-3.33ZM582.46,18.59c-2.34,0-4.22.76-5.82,2.47-1.5,1.57-2.31,3.67-2.31,6.24s.81,4.72,2.36,6.4c1.55,1.71,3.46,2.52,5.77,2.52s4.35-.81,5.9-2.41c1.52-1.68,2.34-3.83,2.34-6.51s-.81-4.72-2.34-6.35c-1.55-1.6-3.52-2.36-5.9-2.36"/><polygon class="cls-2" points="0 53.64 600.06 53.64 600.06 65.1 .73 65.1 0 53.64"/></g></g></svg>